# This file uses centimeters as units for non-parametric coordinates.

v -12.493718 -1.422698 8.359930
v 0.862646 -1.422699 8.347929
v 3.696698 -1.422698 -2.032956
v -16.000000 2.000000 13.231917
v 10.131996 1.999999 13.213889
v 15.768803 2.000001 7.316404
v -16.000000 6.000000 13.231917
v 10.131983 5.999999 13.213879
v 15.768790 6.000001 7.316404
v -16.000000 6.000000 7.316404
v -16.000000 6.000000 -2.357415
v 15.676907 6.000000 -2.357415
v -5.333333 6.000000 -16.000000
v 10.150603 6.000000 -16.000000
v 15.676907 6.000000 -11.518695
v -5.333333 2.000000 -16.000000
v 10.150603 2.000000 -16.000000
v 15.676907 2.000000 -11.518695
v -7.041867 -1.422698 -11.128014
v 0.872143 -1.422698 -11.128014
v -12.493718 -1.422698 -2.032956
v -12.493718 -1.422698 4.416255
v 15.676907 2.000000 -2.357414
v -16.000000 2.000000 -2.357414
v -16.000000 2.000000 7.316404
v -7.041867 -5.422698 -11.128014
v 3.696698 -5.422698 -1.993427
v -12.493718 -5.422698 -1.993427
v 0.862646 -5.422699 8.347928
v -12.493718 -5.422698 8.359929
v 0.872143 -5.422698 -11.128014
v -5.243909 -5.422698 -1.993427
v -5.243911 -5.422698 8.357173
v -12.493718 -8.333778 -1.993427
v -5.243909 -8.333778 -1.993427
v -5.243911 -8.333778 8.357173
v -12.493718 -8.333778 8.359929
v -11.458669 -15.659700 6.205917
v -10.136140 -15.659700 6.205917
v -10.136140 -15.659700 7.413177
v -11.458669 -15.659700 7.414251
vt 0.557936 0.663641
vt 0.557936 0.530915
vt 0.615887 0.663641
vt 0.615887 0.530915
vt 0.615887 0.803793
vt 0.557936 0.465991
vt 0.557936 0.803793
vt 0.615887 0.465991
vt 0.615887 0.889234
vt 0.557936 0.889234
vt 0.877486 0.691845
vt 0.877486 0.551693
vt 0.935437 0.691845
vt 0.827899 0.593710
vt 0.935437 0.551693
vt 0.935437 0.889495
vt 0.827899 0.687144
vt 0.827899 0.536575
vt 0.877486 0.465991
vt 0.877486 0.889495
vt 0.769948 0.686571
vt 0.827899 0.818911
vt 0.769948 0.536575
vt 0.935437 0.465991
vt 0.769948 0.818911
vt 0.727773 0.536575
vt 0.727773 0.686571
vt 0.621637 0.567782
vt 0.621637 0.550276
vt 0.248171 0.597758
vt 0.248171 0.748153
vt 0.190220 0.598330
vt 0.190220 0.748153
vt 0.190220 0.465991
vt 0.248171 0.465991
vt 0.349478 0.752028
vt 0.349478 0.901985
vt 0.307303 0.752028
vt 0.307303 0.901985
vt 0.201167 0.870818
vt 0.201167 0.888308
vt 0.204218 0.176889
vt 0.339669 0.001992
vt 0.354613 0.217948
vt 0.199517 0.003323
vt 0.425110 0.083657
vt 0.066791 0.003323
vt 0.425371 0.462250
vt 0.072451 0.217811
vt 0.354787 0.411452
vt 0.001867 0.083387
vt 0.001867 0.307714
vt 0.072451 0.332467
vt 0.488484 0.598330
vt 0.358954 0.598330
vt 0.332906 0.465991
vt 0.447425 0.748153
vt 0.253921 0.598330
vt 0.447562 0.465991
vt 0.358954 0.748287
vt 0.371437 0.870818
vt 0.390597 0.870818
vt 0.371437 0.888324
vt 0.356441 0.752028
vt 0.390597 0.888309
vt 0.461475 0.752028
vt 0.854843 0.307714
vt 0.789919 0.003323
vt 0.854843 0.083387
vt 0.657193 0.003323
vt 0.657193 0.462250
vt 0.517041 0.462250
vt 0.517041 0.001992
vt 0.431600 0.083657
vt 0.431339 0.462250
vt 0.126518 0.690318
vt 0.126518 0.465991
vt 0.184469 0.690318
vt 0.184469 0.465991
vt 0.001867 0.958156
vt 0.001867 0.900205
vt 0.106900 0.900205
vt 0.106900 0.858030
vt 0.195370 0.958156
vt 0.001867 0.858030
vt 0.195370 0.900205
vt 0.036023 0.751894
vt 0.016863 0.751894
vt 0.467874 0.962981
vt 0.467874 0.848325
vt 0.525825 0.962981
vt 0.525825 0.848325
vt 0.552185 0.844584
vt 0.494234 0.844584
vt 0.552185 0.465991
vt 0.494234 0.465991
vt 0.531811 0.998008
vt 0.531811 0.892975
vt 0.573986 0.998008
vt 0.573986 0.892975
vn 0.227441 -0.971810 0.062093
vn 0.396643 -0.870529 0.291298
vn 0.093334 -0.911161 0.401340
vn 0.200416 -0.603018 0.772142
vn 0.183058 0.000003 0.983102
vn 0.722902 0.000003 0.690950
vn 0.000000 0.000000 -1.000000
vn 0.208599 0.000000 -0.978001
vn 0.000000 -0.511512 -0.859276
vn 0.213185 -0.648895 -0.730402
vn 0.629846 0.000000 -0.776720
vn 0.374060 -0.859996 -0.347111
vn 0.118410 -0.931777 -0.343178
vn 0.000000 -0.818260 -0.574849
vn 0.222972 -0.972362 -0.069246
vn 0.000000 -1.000000 -0.000000
vn -0.000000 -1.000000 -0.000000
vn 0.000000 -1.000000 -0.000000
vn 0.000000 -1.000000 0.000000
vn 0.000000 -1.000000 0.000000
vn 0.000000 -1.000000 0.000000
vn 0.000000 -1.000000 0.000000
vn 0.000000 -1.000000 0.000000
vn 0.274670 -0.961538 -0.001382
vn 0.650164 -0.759794 0.000000
vn 0.526112 -0.850412 -0.002551
vn 0.649724 -0.760145 -0.006172
vn 0.999988 0.000001 -0.004878
vn 1.000000 0.000000 0.000000
vn 0.999955 0.000002 -0.009499
vn -0.665122 -0.704762 -0.246824
vn -0.879512 -0.306481 -0.364045
vn -0.703655 -0.465046 -0.537218
vn -0.781416 -0.126943 -0.610962
vn -0.698526 -0.715585 0.000000
vn -0.917431 -0.397896 0.000000
vn -0.698526 -0.715585 0.000000
vn -0.955767 -0.294126 0.000000
vn -0.787789 -0.000000 -0.615945
vn -0.909360 -0.000000 -0.416009
vn -1.000000 0.000000 0.000000
vn -1.000000 0.000000 0.000000
vn 0.000000 1.000000 0.000000
vn 0.000000 1.000000 0.000000
vn 0.000000 1.000000 0.000000
vn 0.000000 -1.000000 -0.000000
vn -0.857709 0.000000 -0.514136
vn -0.857934 -0.001166 -0.513759
vn -0.858459 -0.003911 -0.512867
vn -0.858678 -0.005065 -0.512490
vn -1.000000 -0.000000 0.000000
vn -1.000000 0.000000 0.000000
vn -1.000000 0.000000 0.000000
vn 0.964692 0.002603 0.263367
vn 0.964497 0.000593 0.264091
vn 0.964636 0.002016 0.263579
vn 0.964439 -0.000000 0.264305
vn 0.000622 0.000437 1.000000
vn 0.000380 -0.000000 1.000000
vn 0.000805 0.000601 1.000000
vn -1.000000 -0.000000 0.000000
vn -1.000000 -0.000000 0.000000
vn 0.000000 0.000000 -1.000000
vn 0.000000 0.000000 -1.000000
vn 0.000000 0.000000 -1.000000
vn 0.000000 0.000000 -1.000000
vn 0.955006 0.000000 -0.296586
vn 0.955276 -0.002187 -0.295708
vn 0.955098 -0.000741 -0.296289
vn 0.955365 -0.002919 -0.295414
vn -0.000000 -1.000000 -0.000000
vn -0.000000 -1.000000 -0.000000
vn 0.001168 0.000527 0.999999
vn 0.001514 -0.000000 0.999999
vn 0.000517 -0.818085 0.575098
vn 0.000670 -0.364469 0.931215
vn 0.000690 0.000000 1.000000
vn 0.000000 1.000000 0.000000
vn -0.000000 1.000000 0.000000
vn 0.000000 1.000000 -0.000000
vn -0.000000 1.000000 -0.000000
vn 0.000000 1.000000 0.000000
vn -0.000000 1.000000 -0.000000
vn 0.000000 0.000000 -1.000000
vn 0.000000 0.000000 -1.000000
vn 0.000000 0.000000 -1.000000
vn 0.000000 0.000000 -1.000000
vn 1.000000 0.000000 0.000000
vn 1.000000 0.000000 0.000000
vn 0.934964 -0.354744 0.000000
vn 0.909760 -0.415134 0.000000
vn 0.000379 -0.078811 0.996890
vn 0.000386 -0.086740 0.996231
vn -0.995462 -0.095156 0.000000
vn -0.997097 -0.076138 0.000000
vn 0.000000 -0.745708 -0.666273
vn 0.000000 -0.745708 -0.666273
vn 0.000000 -0.745708 -0.666273
vn 0.000000 -0.745708 -0.666273
vn 0.831616 -0.555351 0.000000
vn 0.831616 -0.555351 0.000000
vn 0.000465 -0.128020 0.991771
vn 0.000805 -0.127912 0.991785
vn -0.990166 -0.139897 0.000000
vn -0.990166 -0.139896 0.000000
s 1
f 3/42/1 6/43/2 2/44/3
f 2/44/3 6/43/2 5/46/4
f 5/10/4 6/7/2 8/9/5
f 8/9/5 6/7/2 9/5/6
s 2
f 13/76/7 14/77/8 16/78/9
f 16/78/9 14/77/8 17/79/10
f 14/8/8 15/4/11 17/6/10
f 17/6/10 15/4/11 18/2/12
f 17/51/10 20/49/13 16/52/9
f 16/52/9 20/49/13 19/53/14
f 17/51/10 18/47/12 20/49/13
f 20/49/13 18/47/12 3/42/15
s 3
f 27/54/16 32/55/17 26/56/18
f 26/56/18 32/55/17 28/58/19
s 4
f 38/61/20 39/62/21 41/63/22
f 41/63/22 39/62/21 40/65/23
s 5
f 3/42/24 18/47/25 23/45/26
f 3/42/24 23/45/26 6/43/27
f 23/1/26 18/2/25 12/3/28
f 12/3/28 18/2/25 15/4/29
f 6/7/27 23/1/26 9/5/30
f 9/5/30 23/1/26 12/3/28
s 6
f 21/17/31 24/11/32 19/22/33
f 19/22/33 24/11/32 16/20/34
f 21/17/31 22/14/35 24/11/32
f 24/11/32 22/14/35 25/12/36
f 22/14/35 1/18/37 25/12/36
f 25/12/36 1/18/37 4/19/38
f 16/20/34 24/11/32 13/16/39
f 13/16/39 24/11/32 11/13/40
f 24/11/32 25/12/36 11/13/40
f 11/13/40 25/12/36 10/15/41
f 25/12/36 4/19/38 10/15/41
f 10/15/41 4/19/38 7/24/42
s 7
f 13/67/43 15/68/44 14/69/45
s 3
f 26/56/18 31/59/46 27/54/16
s 8
f 19/22/47 26/25/48 21/17/49
f 21/17/49 26/25/48 28/21/50
s 9
f 22/14/51 21/17/52 28/21/53
s 10
f 3/30/54 2/31/55 27/32/56
f 27/32/56 2/31/55 29/33/57
s 11
f 1/80/58 30/81/59 33/82/60
s 9
f 1/18/61 22/14/51 30/23/62
f 30/23/62 22/14/51 28/21/53
s 12
f 19/89/63 20/90/64 26/91/65
f 26/91/65 20/90/64 31/92/66
s 13
f 20/35/67 3/30/68 31/34/69
f 31/34/69 3/30/68 27/32/70
s 3
f 27/54/16 29/57/71 32/55/17
f 32/55/17 29/57/71 33/60/72
s 11
f 1/80/58 33/82/60 2/84/73
f 2/84/73 33/82/60 29/86/74
s 1
f 1/50/75 2/44/3 4/48/76
f 4/48/76 2/44/3 5/46/4
f 7/93/77 4/94/76 8/95/5
f 8/95/5 4/94/76 5/96/4
s 7
f 7/75/78 8/74/79 10/72/80
f 10/72/80 8/74/79 9/73/81
f 11/71/82 10/72/80 12/70/83
f 12/70/83 10/72/80 9/73/81
f 11/71/82 12/70/83 13/67/43
f 13/67/43 12/70/83 15/68/44
s 15
f 28/97/84 32/98/85 34/99/86
f 34/99/86 32/98/85 35/100/87
s 16
f 32/36/88 33/37/89 35/38/90
f 35/38/90 33/37/89 36/39/91
s 11
f 33/82/60 30/81/59 36/83/92
f 36/83/92 30/81/59 37/85/93
s 9
f 30/23/62 28/21/53 37/26/94
f 37/26/94 28/21/53 34/27/95
s 17
f 35/66/96 39/62/97 34/64/98
f 34/64/98 39/62/97 38/61/99
s 16
f 40/41/100 39/40/101 36/39/91
f 35/38/90 36/39/91 39/40/101
s 11
f 36/83/92 37/85/93 40/87/102
f 40/87/102 37/85/93 41/88/103
s 9
f 41/29/104 37/26/94 38/28/105
f 37/26/94 34/27/95 38/28/105
