# This file uses centimeters as units for non-parametric coordinates.

g default
v -12.493718 -1.422698 4.556127
v -3.419775 -1.422699 4.544126
v -0.585723 -1.422698 -2.280588
v -9.427153 2.000000 9.428115
v 5.849575 1.999999 9.410086
v 11.486382 2.000001 3.512601
v -9.427153 6.000000 9.428115
v 5.849562 5.999999 9.410075
v 11.486369 6.000001 3.512601
v -16.000000 6.000000 3.512601
v -16.000000 6.000000 -2.605047
v 11.394485 6.000000 -2.605047
v -5.333333 6.000000 -12.443829
v 5.868182 6.000000 -12.443829
v 11.394485 6.000000 -7.962523
v -5.333333 2.000000 -12.443829
v 5.868182 2.000000 -12.443829
v 11.394485 2.000000 -7.962523
v -7.041867 -1.422698 -7.571842
v -3.410278 -1.422698 -7.571842
v -12.493718 -1.422698 -2.280589
v -12.493718 -1.422698 0.612452
v 11.394485 2.000000 -2.605046
v -16.000000 2.000000 -2.605046
v -16.000000 2.000000 3.512601
v -7.041867 -5.422698 -7.571842
v -0.585723 -5.422698 -2.241060
v -12.493718 -5.422698 -2.241060
v -3.419775 -5.422699 4.544125
v -12.493718 -5.422698 4.556126
v -3.410278 -5.422698 -7.571842
v -5.243909 -5.422698 -2.241060
v -5.243911 -5.422698 4.553370
v -12.493718 -8.333778 -2.241060
v -5.243909 -8.333778 -2.241060
v -5.243911 -8.333778 4.553370
v -12.493718 -8.333778 4.556126
v -11.458669 -15.659700 2.402114
v -10.136140 -15.659700 2.402114
v -10.136140 -15.659700 3.609374
v -11.458669 -15.659700 3.610448
vt 0.876273 0.695871
vt 0.876273 0.579292
vt 0.963313 0.695871
vt 0.963313 0.579292
vt 0.963313 0.828991
vt 0.876273 0.481779
vt 0.876273 0.828991
vt 0.963313 0.481779
vt 0.963313 0.957320
vt 0.876272 0.957321
vt 0.869854 0.263834
vt 0.869854 0.130714
vt 0.956894 0.263834
vt 0.795376 0.193821
vt 0.956894 0.130714
vt 0.956894 0.477926
vt 0.795376 0.256774
vt 0.795376 0.108007
vt 0.869854 0.001992
vt 0.869854 0.477926
vt 0.708336 0.255914
vt 0.795376 0.371912
vt 0.708336 0.108007
vt 0.956894 0.001992
vt 0.708336 0.371912
vt 0.644991 0.108007
vt 0.644991 0.255914
vt 0.485579 0.154878
vt 0.485579 0.128585
vt 0.308977 0.642790
vt 0.308977 0.791296
vt 0.221937 0.643650
vt 0.221937 0.791296
vt 0.221937 0.527652
vt 0.308977 0.527652
vt 0.149770 0.998008
vt 0.001923 0.998008
vt 0.149770 0.934663
vt 0.001923 0.934663
vt 0.048734 0.775250
vt 0.022464 0.775250
vt 0.223075 0.264681
vt 0.349135 0.001992
vt 0.371581 0.326350
vt 0.216015 0.003992
vt 0.477465 0.124649
vt 0.099436 0.003992
vt 0.477857 0.457071
vt 0.107937 0.326144
vt 0.371842 0.523800
vt 0.001923 0.124244
vt 0.001923 0.367989
vt 0.107937 0.405167
vt 0.574017 0.643650
vt 0.472655 0.643650
vt 0.433531 0.527652
vt 0.512348 0.791296
vt 0.314899 0.643650
vt 0.512555 0.527652
vt 0.472655 0.791497
vt 0.257405 0.930382
vt 0.257405 0.901604
vt 0.283698 0.930382
vt 0.156369 0.952905
vt 0.283675 0.901604
vt 0.156369 0.795149
vt 0.128974 0.771398
vt 0.128974 0.527652
vt 0.216015 0.771398
vt 0.216015 0.527652
vt 0.579939 0.791576
vt 0.579939 0.704536
vt 0.737695 0.704536
vt 0.737695 0.641191
vt 0.777388 0.791576
vt 0.579939 0.641191
vt 0.777388 0.704536
vt 0.631240 0.481779
vt 0.602462 0.481779
vt 0.359538 0.795350
vt 0.438562 0.795350
vt 0.359538 0.882390
vt 0.438562 0.882390
vt 0.870350 0.814201
vt 0.783310 0.814201
vt 0.870350 0.481779
vt 0.783310 0.481779
vt 0.289934 0.953106
vt 0.289934 0.795350
vt 0.353279 0.953106
vt 0.353279 0.795350
vn 0.229026 -0.968763 0.095106
vn 0.456350 -0.799223 0.391136
vn 0.105255 -0.913309 0.393431
vn 0.260010 -0.676804 0.688717
vn 0.272177 0.000003 0.962247
vn 0.722902 0.000003 0.690950
vn 0.000000 0.000000 -1.000000
vn 0.258770 0.000000 -0.965939
vn 0.000000 -0.531964 -0.846767
vn 0.242458 -0.688366 -0.683642
vn 0.629846 0.000000 -0.776720
vn 0.430974 -0.761443 -0.484217
vn 0.117282 -0.922298 -0.368254
vn 0.000000 -0.818260 -0.574849
vn 0.220726 -0.968193 -0.117827
vn 0.000000 -1.000000 -0.000000
vn -0.000000 -1.000000 0.000000
vn 0.000000 -1.000000 0.000000
vn 0.000000 -1.000000 0.000000
vn 0.000000 -1.000000 0.000000
vn 0.000000 -1.000000 0.000000
vn 0.000000 -1.000000 0.000000
vn 0.000000 -1.000000 0.000000
vn 0.274646 -0.961543 -0.002334
vn 0.597209 -0.802086 0.000000
vn 0.525818 -0.850587 -0.004189
vn 0.601034 -0.799173 -0.009028
vn 0.999968 0.000000 -0.008007
vn 1.000000 0.000000 0.000000
vn 0.999887 0.000002 -0.015019
vn -0.607590 -0.663774 -0.436163
vn -0.813155 -0.290168 -0.504560
vn -0.552992 -0.581667 -0.596543
vn -0.664313 -0.199956 -0.720212
vn -0.698526 -0.715584 0.000000
vn -0.856873 -0.304917 0.415685
vn -0.678896 -0.545708 0.491226
vn -0.664763 -0.111868 0.738631
vn -0.678006 -0.000000 -0.735057
vn -0.831351 -0.000000 -0.555748
vn -0.877610 0.000000 0.479375
vn -0.668962 0.000000 0.743297
vn 0.000000 -1.000000 0.000000
vn -0.696459 0.000000 -0.717597
vn -0.697282 -0.002185 -0.716793
vn -0.698299 -0.004901 -0.715789
vn -0.699106 -0.007066 -0.714983
vn -1.000000 -0.000000 0.000000
vn -1.000000 0.000000 0.000000
vn -1.000000 -0.000000 0.000000
vn 0.923530 0.003790 0.383508
vn 0.922996 0.001206 0.384808
vn 0.923285 0.002599 0.384108
vn 0.922744 -0.000000 0.385414
vn 0.000730 0.000635 1.000000
vn 0.000380 -0.000000 1.000000
vn 0.001198 0.000839 0.999999
vn -1.000000 0.000000 0.000000
vn -1.000000 -0.000000 0.000000
vn 0.000000 0.000000 -1.000000
vn 0.000000 0.000000 -1.000000
vn 0.000000 0.000000 -1.000000
vn 0.000000 0.000000 -1.000000
vn 0.882176 0.000000 -0.470920
vn 0.883085 -0.002910 -0.469205
vn 0.882720 -0.001739 -0.469896
vn 0.883616 -0.004627 -0.468190
vn -0.000000 -1.000000 -0.000000
vn -0.000001 -1.000000 0.000000
vn 0.001585 0.001588 0.999998
vn 0.005068 -0.000000 0.999987
vn 0.000760 -0.818484 0.574528
vn 0.001017 -0.543875 0.839166
vn 0.001181 0.000000 0.999999
vn 0.000000 0.000000 -1.000000
vn 0.000000 0.000000 -1.000000
vn 0.000000 0.000000 -1.000000
vn 0.000000 0.000000 -1.000000
vn 1.000000 0.000000 0.000000
vn 1.000000 0.000000 0.000000
vn 0.920654 -0.390380 0.000000
vn 0.909463 -0.415786 0.000000
vn 0.000379 -0.078811 0.996890
vn 0.000386 -0.086740 0.996231
vn -0.995441 -0.095378 0.000000
vn -0.996208 -0.087002 0.000000
vn 0.000000 -0.535334 -0.844641
vn 0.000000 -0.535334 -0.844641
vn 0.000000 -0.535334 -0.844641
vn 0.000000 -0.535334 -0.844641
vn 0.831616 -0.555351 0.000000
vn 0.831616 -0.555351 0.000000
vn 0.000465 -0.128020 0.991771
vn 0.000806 -0.127912 0.991785
vn -0.990166 -0.139896 0.000000
vn -0.990166 -0.139896 0.000000
s 1
g polySurface1 pCube1
f 3/42/1 6/43/2 2/44/3
f 2/44/3 6/43/2 5/46/4
f 5/10/4 6/7/2 8/9/5
f 8/9/5 6/7/2 9/5/6
s 2
f 13/67/7 14/68/8 16/69/9
f 16/69/9 14/68/8 17/70/10
f 14/8/8 15/4/11 17/6/10
f 17/6/10 15/4/11 18/2/12
f 17/51/10 20/49/13 16/52/9
f 16/52/9 20/49/13 19/53/14
f 17/51/10 18/47/12 20/49/13
f 20/49/13 18/47/12 3/42/15
s 3
f 27/54/16 32/55/17 26/56/18
f 26/56/18 32/55/17 28/58/19
s 4
f 38/61/20 39/62/21 41/63/22
f 41/63/22 39/62/21 40/65/23
s 5
f 3/42/24 18/47/25 23/45/26
f 3/42/24 23/45/26 6/43/27
f 23/1/26 18/2/25 12/3/28
f 12/3/28 18/2/25 15/4/29
f 6/7/27 23/1/26 9/5/30
f 9/5/30 23/1/26 12/3/28
s 6
f 21/17/31 24/11/32 19/22/33
f 19/22/33 24/11/32 16/20/34
f 21/17/31 22/14/35 24/11/32
f 24/11/32 22/14/35 25/12/36
f 22/14/35 1/18/37 25/12/36
f 25/12/36 1/18/37 4/19/38
f 16/20/34 24/11/32 13/16/39
f 13/16/39 24/11/32 11/13/40
f 24/11/32 25/12/36 11/13/40
f 11/13/40 25/12/36 10/15/41
f 25/12/36 4/19/38 10/15/41
f 10/15/41 4/19/38 7/24/42
s 3
f 26/56/18 31/59/43 27/54/16
s 7
f 19/22/44 26/25/45 21/17/46
f 21/17/46 26/25/45 28/21/47
s 8
f 22/14/48 21/17/49 28/21/50
s 9
f 3/30/51 2/31/52 27/32/53
f 27/32/53 2/31/52 29/33/54
s 10
f 1/71/55 30/72/56 33/73/57
s 8
f 1/18/58 22/14/48 30/23/59
f 30/23/59 22/14/48 28/21/50
s 11
f 19/80/60 20/81/61 26/82/62
f 26/82/62 20/81/61 31/83/63
s 12
f 20/35/64 3/30/65 31/34/66
f 31/34/66 3/30/65 27/32/67
s 3
f 27/54/16 29/57/68 32/55/17
f 32/55/17 29/57/68 33/60/69
s 10
f 1/71/55 33/73/57 2/75/70
f 2/75/70 33/73/57 29/77/71
s 1
f 1/50/72 2/44/3 4/48/73
f 4/48/73 2/44/3 5/46/4
f 7/84/74 4/85/73 8/86/5
f 8/86/5 4/85/73 5/87/4
s 13
f 28/88/75 32/89/76 34/90/77
f 34/90/77 32/89/76 35/91/78
s 14
f 32/36/79 33/37/80 35/38/81
f 35/38/81 33/37/80 36/39/82
s 10
f 33/73/57 30/72/56 36/74/83
f 36/74/83 30/72/56 37/76/84
s 8
f 30/23/59 28/21/50 37/26/85
f 37/26/85 28/21/50 34/27/86
s 15
f 35/66/87 39/62/88 34/64/89
f 34/64/89 39/62/88 38/61/90
s 14
f 40/41/91 39/40/92 36/39/82
f 35/38/81 36/39/82 39/40/92
s 10
f 36/74/83 37/76/84 40/78/93
f 40/78/93 37/76/84 41/79/94
s 8
f 41/29/95 37/26/85 38/28/96
f 37/26/85 34/27/86 38/28/96
g default
v 11.394485 6.000000 -7.962523
v 5.868182 6.000000 -12.443829
v -5.333333 6.000000 -12.443829
v -9.427153 6.000000 9.428115
v 5.849562 5.999999 9.410075
v -16.000000 6.000000 3.512601
v 11.486369 6.000001 3.512601
v -16.000000 6.000000 -2.605047
v 11.394485 6.000000 -2.605047
vt 0.794153 0.611483
vt 0.631765 0.005322
vt 0.794153 0.205577
vt 0.437627 0.005322
vt 0.437627 0.998008
vt 0.215944 0.998008
vt 0.215944 0.001992
vt 0.002239 0.206251
vt 0.001585 0.759829
vn 0.000000 1.000000 -0.000000
vn 0.000000 1.000000 0.000000
vn 0.000000 1.000000 0.000000
vn 0.000000 1.000000 0.000000
vn -0.000000 1.000000 0.000000
vn -0.000000 1.000000 0.000000
vn -0.000000 1.000000 -0.000000
vn 0.000000 1.000000 -0.000000
vn -0.000000 1.000000 -0.000000
s 1
g pCube1 polySurface2
f 44/92/97 42/93/98 43/94/99
f 45/100/100 46/99/101 47/97/102
f 47/97/102 46/99/101 48/98/103
f 49/96/104 47/97/102 50/95/105
f 50/95/105 47/97/102 48/98/103
f 49/96/104 50/95/105 44/92/97
f 44/92/97 50/95/105 42/93/98
