# This file uses centimeters as units for non-parametric coordinates.

v -0.100000 0.100362 0.319578
v -0.100000 0.505178 0.383870
v -0.100000 0.522543 0.285389
v -0.100000 0.100362 0.211023
v 0.100000 0.100362 0.211023
v 0.100000 0.522543 0.285389
v 0.100000 0.505178 0.383870
v 0.100000 0.100362 0.319578
v 0.150000 0.000000 0.387500
v 0.300000 0.000000 0.386735
v 0.150000 0.000362 0.140114
v 0.300000 0.000000 0.136735
v -0.150000 0.000000 0.142500
v 0.113921 0.100362 0.203469
v -0.113921 0.100362 0.203469
v -0.150000 0.000000 -0.007500
v 0.150000 0.000000 -0.007500
v -0.150000 0.000000 0.537500
v 0.150000 0.000000 0.537500
v -0.150000 0.000000 0.387500
v 0.113921 0.100362 0.326759
v -0.113921 0.100362 0.326759
v -0.300000 0.000000 0.386735
v -0.300000 0.000000 0.136735
vt 0.000000 0.000000
vt 0.996149 -0.001667
vt 0.994387 0.976198
vt 0.000000 1.000000
vt 0.000722 0.002438
vt 0.999445 0.009025
vt 1.000000 0.500000
vt 0.000000 0.500000
vt 0.103280 0.000370
vt 0.375729 -0.000062
vt 0.375000 0.250000
vt 0.125000 0.250000
vt 0.375000 0.500000
vt 0.625000 0.500000
vt 0.650926 0.748393
vt 0.365317 0.746793
vt 0.625000 0.250000
vt 0.625373 0.000193
vt 0.922056 0.002135
vt 0.875000 0.250000
vt 0.000000 0.000000
vt 1.000000 0.000000
vt 0.999583 0.997236
vt 0.000555 0.997788
vt 0.003042 -0.001919
vt 0.600000 0.000000
vt 0.600000 1.000000
vt 0.002914 0.985459
vt 0.375000 0.250000
vt 0.625000 0.250000
vt 0.375000 0.500000
vt 0.625000 0.500000
vt 0.875000 0.250000
vt 0.125000 0.250000
vt 0.125000 0.000094
vt 0.375000 0.000206
vt 0.625000 0.000206
vt 0.875000 0.000094
vt 0.625000 0.749906
vt 0.375000 0.749906
vt 0.375000 0.000206
vt 0.625000 0.000206
vt 0.390275 0.484682
vt 0.390275 0.264561
vt 0.609725 0.264561
vt 0.609725 0.484682
vn -1.000000 0.000000 0.000000
vn -1.000000 0.000000 0.000000
vn -1.000000 0.000000 0.000000
vn -1.000000 0.000000 0.000000
vn 1.000000 0.000000 0.000000
vn 1.000000 0.000000 0.000000
vn 1.000000 0.000000 0.000000
vn 1.000000 0.000000 0.000000
vn -0.000000 0.173475 -0.984838
vn -0.000000 0.173475 -0.984838
vn -0.000000 0.173475 -0.984838
vn -0.000000 0.173475 -0.984838
vn 0.000000 0.984808 0.173648
vn 0.000000 0.984808 0.173648
vn 0.000000 0.984808 0.173648
vn 0.000000 0.984808 0.173648
vn 0.000000 -0.156852 0.987622
vn 0.000000 -0.156851 0.987622
vn 0.000000 -0.156851 0.987622
vn 0.000000 -0.156851 0.987622
vn 0.001218 0.999999 0.000728
vn 0.001218 0.999999 0.000728
vn 0.001218 0.999999 0.000728
vn 0.001218 0.999999 0.000728
vn -0.004203 0.527240 -0.849706
vn -0.004203 0.527240 -0.849706
vn -0.004203 0.527240 -0.849706
vn -0.004203 0.527240 -0.849706
vn -0.000609 0.999999 -0.001217
vn -0.000609 0.999999 -0.001217
vn -0.000609 0.999999 -0.001217
vn -0.000609 0.999999 -0.001217
vn 0.000000 1.000000 0.000000
vn 0.000000 1.000000 0.000000
vn 0.000000 1.000000 0.000000
vn 0.000000 1.000000 0.000000
vn 0.940848 0.338829 0.000331
vn 0.940848 0.338829 0.000331
vn 0.940848 0.338829 0.000331
vn 0.940848 0.338829 0.000331
vn 0.000000 0.517777 0.855516
vn 0.000000 0.517777 0.855516
vn 0.000000 0.517777 0.855516
vn 0.000000 0.517777 0.855516
vn 0.000000 1.000000 0.000000
vn 0.000000 1.000000 0.000000
vn 0.000000 1.000000 0.000000
vn 0.000000 1.000000 0.000000
vn 0.000000 1.000000 0.000000
vn 0.000000 1.000000 0.000000
vn 0.000000 1.000000 0.000000
vn 0.000000 1.000000 0.000000
vn -0.941042 0.338291 0.000000
vn -0.941042 0.338291 0.000000
vn -0.941042 0.338291 0.000000
vn -0.941042 0.338291 0.000000
vn 0.000000 1.000000 0.000000
vn 0.000000 1.000000 0.000000
vn 0.000000 1.000000 0.000000
vn 0.000000 1.000000 0.000000
s off
f 1/36/1 2/29/2 3/34/3 4/35/4
f 5/38/5 6/33/6 7/30/7 8/37/8
f 4/40/9 3/31/10 6/32/11 5/39/12
f 2/29/13 7/30/14 6/32/15 3/31/16
f 8/42/17 7/30/18 2/29/19 1/41/20
f 9/25/21 10/26/22 12/27/23 11/28/24
f 11/15/25 13/16/26 15/13/27 14/14/28
f 13/5/29 11/6/30 17/7/31 16/8/32
f 18/21/33 19/22/34 9/23/35 20/24/36
f 9/18/37 11/19/38 14/20/39 21/17/40
f 20/10/41 9/18/42 21/17/43 22/11/44
f 22/11/45 21/17/46 14/14/47 15/13/48 5/46/49 8/45/50 1/44/51 4/43/52
f 13/9/53 20/10/54 22/11/55 15/12/56
f 23/1/57 20/2/58 13/3/59 24/4/60
v 0.200000 0.707150 0.206381
v 0.200000 0.601084 0.162447
v 0.200000 0.495018 0.206381
v 0.200000 0.451084 0.312447
v 0.200000 0.495018 0.418513
v 0.200000 0.601084 0.462447
v 0.200000 0.707150 0.418513
v 0.200000 0.751084 0.312447
v -0.200000 0.707150 0.206381
v -0.200000 0.601084 0.162447
v -0.200000 0.495018 0.206381
v -0.200000 0.451084 0.312447
v -0.200000 0.495018 0.418513
v -0.200000 0.601084 0.462447
v -0.200000 0.707150 0.418513
v -0.200000 0.751084 0.312447
v 0.200000 0.601084 0.312447
v -0.200000 0.601084 0.312447
vt 0.610485 0.045765
vt 0.500000 0.000000
vt 0.389515 0.045765
vt 0.343750 0.156250
vt 0.389515 0.266735
vt 0.500000 0.312500
vt 0.610485 0.266735
vt 0.656250 0.156250
vt 0.375000 0.312500
vt 0.406250 0.312500
vt 0.437500 0.312500
vt 0.468750 0.312500
vt 0.500000 0.312500
vt 0.531250 0.312500
vt 0.562500 0.312500
vt 0.593750 0.312500
vt 0.625000 0.312500
vt 0.375000 0.688440
vt 0.406250 0.688440
vt 0.437500 0.688440
vt 0.468750 0.688440
vt 0.500000 0.688440
vt 0.531250 0.688440
vt 0.562500 0.688440
vt 0.593750 0.688440
vt 0.625000 0.688440
vt 0.610485 0.733265
vt 0.500000 0.687500
vt 0.389515 0.733265
vt 0.343750 0.843750
vt 0.389515 0.954235
vt 0.500000 1.000000
vt 0.610485 0.954235
vt 0.656250 0.843750
vt 0.500000 0.150000
vt 0.500000 0.837500
vn 0.139255 0.700217 -0.700217
vn 0.139255 -0.000000 -0.990257
vn -0.139255 0.000000 -0.990257
vn -0.139255 0.700217 -0.700217
vn 0.139255 -0.700217 -0.700217
vn -0.139255 -0.700217 -0.700217
vn 0.139255 -0.990257 0.000000
vn -0.139255 -0.990257 0.000000
vn 0.139255 -0.700217 0.700217
vn -0.139255 -0.700217 0.700217
vn 0.139255 -0.000000 0.990257
vn -0.139255 -0.000000 0.990257
vn 0.139255 0.700217 0.700217
vn -0.139255 0.700217 0.700217
vn 0.139255 0.990257 -0.000000
vn -0.139255 0.990257 -0.000000
vn 1.000000 -0.000000 0.000000
vn -1.000000 0.000000 0.000000
s 1
f 25/55/61 26/56/62 34/65/63 33/64/64
f 26/56/62 27/57/65 35/66/66 34/65/63
f 27/57/65 28/58/67 36/67/68 35/66/66
f 28/58/67 29/59/69 37/68/70 36/67/68
f 29/59/69 30/60/71 38/69/72 37/68/70
f 30/60/71 31/61/73 39/70/74 38/69/72
f 31/61/73 32/62/75 40/71/76 39/70/74
f 32/62/75 25/63/61 33/72/64 40/71/76
f 26/48/62 25/47/61 41/81/77
f 27/49/65 26/48/62 41/81/77
f 28/50/67 27/49/65 41/81/77
f 29/51/69 28/50/67 41/81/77
f 30/52/71 29/51/69 41/81/77
f 31/53/73 30/52/71 41/81/77
f 32/54/75 31/53/73 41/81/77
f 25/47/61 32/54/75 41/81/77
f 33/79/64 34/78/63 42/82/78
f 34/78/63 35/77/66 42/82/78
f 35/77/66 36/76/68 42/82/78
f 36/76/68 37/75/70 42/82/78
f 37/75/70 38/74/72 42/82/78
f 38/74/72 39/73/74 42/82/78
f 39/73/74 40/80/76 42/82/78
f 40/80/76 33/79/64 42/82/78
