# This file uses centimeters as units for non-parametric coordinates.

v -0.020000 -0.030000 0.150000
v 0.020000 -0.030000 0.150000
v -0.020000 0.030000 0.150000
v 0.020000 0.030000 0.150000
v -0.020000 0.030000 -0.150000
v 0.020000 0.030000 -0.150000
v -0.020000 -0.030000 -0.150000
v 0.020000 -0.030000 -0.150000
vt 0.282035 0.998008
vt 0.282035 0.001992
vt 0.481238 0.001992
vt 0.481238 0.998008
vt 0.488460 0.998008
vt 0.488460 0.001992
vt 0.687663 0.001992
vt 0.687663 0.998008
vt 0.001835 0.001992
vt 0.134637 0.001992
vt 0.134637 0.998008
vt 0.001835 0.998008
vt 0.142024 0.001992
vt 0.274827 0.001992
vt 0.274827 0.998008
vt 0.142024 0.998008
vt 0.694885 0.001992
vt 0.827688 0.001992
vt 0.827688 0.201195
vt 0.694885 0.201195
vt 0.786373 0.204871
vt 0.919175 0.204871
vt 0.919175 0.404074
vt 0.786373 0.404074
vn 0.000000 0.000000 1.000000
vn 0.000000 0.000000 1.000000
vn 0.000000 0.000000 1.000000
vn 0.000000 0.000000 1.000000
vn 0.000000 1.000000 0.000000
vn 0.000000 1.000000 0.000000
vn 0.000000 1.000000 0.000000
vn 0.000000 1.000000 0.000000
vn 0.000000 0.000000 -1.000000
vn 0.000000 0.000000 -1.000000
vn 0.000000 0.000000 -1.000000
vn 0.000000 0.000000 -1.000000
vn 0.000000 -1.000000 0.000000
vn 0.000000 -1.000000 0.000000
vn 0.000000 -1.000000 0.000000
vn 0.000000 -1.000000 0.000000
vn 1.000000 0.000000 0.000000
vn 1.000000 0.000000 0.000000
vn 1.000000 0.000000 0.000000
vn 1.000000 0.000000 0.000000
vn -1.000000 0.000000 0.000000
vn -1.000000 0.000000 0.000000
vn -1.000000 0.000000 0.000000
vn -1.000000 0.000000 0.000000
s off
f 1/17/1 2/18/2 4/19/3 3/20/4
f 3/9/5 4/10/6 6/11/7 5/12/8
f 5/21/9 6/22/10 8/23/11 7/24/12
f 7/13/13 8/14/14 2/15/15 1/16/16
f 2/1/17 8/2/18 6/3/19 4/4/20
f 7/5/21 1/6/22 3/7/23 5/8/24
