# This file uses centimeters as units for non-parametric coordinates.

v -0.040000 0.000000 0.594792
v -0.080000 0.069282 0.594792
v -0.120000 0.000000 0.594792
v -0.080000 -0.069282 0.594792
v -0.160000 -0.069282 0.594792
v -0.200000 0.000000 0.594792
v -0.160000 0.069282 0.594792
v -0.080000 0.069282 0.250000
v -0.060000 -0.034641 0.250000
v -0.160000 -0.069282 0.250000
v -0.180000 0.034641 0.250000
v -0.300000 -0.200000 0.250000
v 0.300000 -0.200000 0.250000
v 0.300000 0.200000 0.250000
v -0.300000 0.200000 0.250000
v 0.060000 -0.034641 0.250000
v 0.080000 0.069282 0.250000
v 0.180000 0.034641 0.250000
v 0.160000 -0.069282 0.250000
v 0.300000 0.200000 -0.250000
v -0.300000 0.200000 -0.250000
v 0.300000 -0.083290 -0.250000
v -0.300000 -0.083290 -0.250000
v 0.080000 0.069282 0.594792
v 0.160000 0.069282 0.594792
v 0.040000 0.000000 0.594792
v 0.080000 -0.069282 0.594792
v 0.160000 -0.069282 0.594792
v 0.200000 0.000000 0.594792
v 0.120000 0.000000 0.594792
vt 0.365110 0.649666
vt 0.369007 0.839665
vt 0.306792 0.650862
vt 0.324944 0.841313
vt 0.280860 0.840411
vt 0.438372 0.839275
vt 0.434475 0.649276
vt 0.496691 0.838079
vt 0.478538 0.647628
vt 0.522622 0.648530
vt 0.428560 0.641091
vt 0.495964 0.352326
vt 0.659572 0.641091
vt 0.659572 0.352326
vt 0.191683 0.352326
vt 0.422694 0.352326
vt 0.259086 0.641091
vt 0.422694 0.641091
vt 0.677257 0.896081
vt 0.695986 0.705650
vt 0.735595 0.896712
vt 0.651891 0.706420
vt 0.740075 0.706690
vt 0.867862 0.708366
vt 0.849132 0.898797
vt 0.809524 0.707735
vt 0.893228 0.898027
vt 0.805043 0.897757
vt 0.432614 0.645986
vt 0.417949 0.842571
vt 0.372514 0.646753
vt 0.372514 0.842571
vt 0.523757 0.842955
vt 0.538421 0.646370
vt 0.583856 0.842188
vt 0.583856 0.646370
vt 0.240607 0.348510
vt 0.240607 0.001992
vt 0.529372 0.348510
vt 0.529372 0.001992
vt 0.662396 0.695601
vt 0.664631 0.353656
vt 0.955010 0.697514
vt 0.957245 0.355569
vt 0.588970 0.842109
vt 0.592112 0.646368
vt 0.649050 0.843074
vt 0.637534 0.646331
vt 0.803438 0.704585
vt 0.800296 0.900326
vt 0.743357 0.703620
vt 0.754873 0.900363
vt 0.914190 0.905603
vt 0.954203 0.928705
vt 0.914190 0.951806
vt 0.954203 0.974907
vt 0.874178 0.928705
vt 0.914190 0.998008
vt 0.874178 0.974907
vt 0.001905 0.348510
vt 0.001905 0.001992
vt 0.077398 0.267655
vt 0.097404 0.209903
vt 0.137417 0.279206
vt 0.097404 0.140599
vt 0.232916 0.348510
vt 0.077398 0.082846
vt 0.157423 0.129048
vt 0.232916 0.001992
vt 0.137417 0.071296
vt 0.185823 0.629557
vt 0.165813 0.571795
vt 0.090308 0.352300
vt 0.061923 0.852817
vt 0.001905 0.841267
vt 0.137417 0.633356
vt 0.279222 0.852817
vt 0.219203 0.771963
vt 0.143710 0.644907
vt 0.536889 0.348510
vt 0.536889 0.001992
vt 0.700497 0.348510
vt 0.700497 0.001992
vt 0.868312 0.928705
vt 0.868312 0.974907
vt 0.828300 0.951806
vt 0.828300 0.998008
vt 0.828300 0.905603
vt 0.788287 0.974907
vt 0.788287 0.928705
vt 0.157423 0.129048
vt 0.232916 0.001992
vt 0.232916 0.001992
vt 0.137417 0.071296
vn 0.000000 0.000000 1.000000
vn 0.000000 0.000000 1.000000
vn 0.000000 0.000000 1.000000
vn 0.000000 0.000000 1.000000
vn 0.000001 0.000000 1.000000
vn 0.000001 0.000000 1.000000
vn 0.000000 0.000000 1.000000
vn 0.981981 0.188982 0.000000
vn 0.899394 0.430215 -0.077500
vn 0.973899 0.226673 -0.011829
vn 0.861687 0.497495 -0.099966
vn 0.866025 -0.500000 0.000000
vn 0.866025 -0.500000 0.000000
vn 0.866025 -0.500000 0.000000
vn 0.326387 -0.942198 -0.075730
vn 0.075873 -0.996962 -0.017604
vn 0.291352 -0.954225 -0.067601
vn 0.000000 -1.000000 0.000000
vn -0.981981 -0.188982 0.000000
vn -0.899394 -0.430214 -0.077500
vn -0.973899 -0.226672 -0.011829
vn -0.861688 -0.497495 -0.099966
vn -0.866025 0.500000 -0.000000
vn -0.866025 0.500000 -0.000000
vn -0.866025 0.500000 -0.000000
vn -0.326387 0.942198 -0.075730
vn -0.075872 0.996962 -0.017604
vn -0.291351 0.954225 -0.067601
vn 0.000000 1.000000 0.000000
vn 0.000000 0.000000 1.000000
vn -0.000000 0.000000 1.000000
vn -0.000000 0.000000 1.000000
vn -0.000000 -0.000000 1.000000
vn 0.000000 -0.000000 1.000000
vn 0.000000 -0.000000 1.000000
vn 0.000000 -0.000000 1.000000
vn 0.000000 0.000000 1.000000
vn 0.000000 -0.000000 1.000000
vn 0.000000 -0.000000 1.000000
vn -0.000000 -0.000000 1.000000
vn -0.000000 0.000003 1.000000
vn 0.000000 1.000000 0.000000
vn 0.000000 1.000000 0.000000
vn 0.000000 1.000000 0.000000
vn 0.000000 1.000000 0.000000
vn 0.000000 0.000000 -1.000000
vn 0.000000 0.000000 -1.000000
vn 0.000000 0.000000 -1.000000
vn 0.000000 0.000000 -1.000000
vn 0.000000 -0.973823 -0.227309
vn 0.000000 -0.973823 -0.227309
vn 0.000000 -0.973823 -0.227309
vn 0.000000 -0.973823 -0.227309
vn 1.000000 0.000000 0.000000
vn 1.000000 0.000000 0.000000
vn 1.000000 0.000000 0.000000
vn 1.000000 0.000000 0.000000
vn -1.000000 0.000000 0.000000
vn -1.000000 0.000000 0.000000
vn -1.000000 0.000000 0.000000
vn -1.000000 0.000000 0.000000
vn 0.327327 0.944911 0.000000
vn 0.077120 0.994005 -0.077500
vn 0.290645 0.956758 -0.011829
vn 0.000000 0.994991 -0.099966
vn -0.979161 0.188440 -0.075730
vn -0.901331 0.432774 -0.017604
vn -0.972058 0.224794 -0.067601
vn -0.866025 0.500000 0.000000
vn -0.362719 -0.931836 -0.010831
vn -0.470797 -0.880122 -0.061116
vn -0.866026 -0.500000 0.000000
vn -0.327327 -0.944911 0.000000
vn -0.077120 -0.994005 -0.077500
vn 0.979161 -0.188440 -0.075730
vn 0.901331 -0.432774 -0.017604
vn 0.972058 -0.224795 -0.067601
vn 0.866025 -0.500000 0.000000
vn 0.866026 0.500000 -0.000000
vn 0.866026 0.500000 -0.000000
vn 0.866026 0.500000 -0.000000
vn 0.000000 0.000000 1.000000
vn 0.000000 0.000000 1.000000
vn 0.000000 0.000000 1.000000
vn 0.000001 0.000000 1.000000
vn 0.000001 0.000000 1.000000
vn 0.000000 0.000000 1.000000
vn 0.000000 0.000000 1.000000
s 1
f 1/53/1 2/54/2 3/55/3
f 4/57/4 1/53/1 3/55/3
f 5/59/5 4/57/4 3/55/3
f 6/58/6 5/59/5 3/55/3
f 7/56/7 6/58/6 3/55/3
f 2/54/2 7/56/7 3/55/3
s 2
f 8/1/8 2/2/9 9/3/10
f 9/3/10 2/2/9 1/4/11
s off
f 9/3/12 1/4/13 4/5/14
s 3
f 9/29/15 4/30/16 10/31/17
f 10/31/17 4/30/16 5/32/18
s 4
f 10/6/19 5/7/20 11/8/21
f 11/8/21 5/7/20 6/9/22
s off
f 11/8/23 6/9/24 7/10/25
s 5
f 11/33/26 7/34/27 8/35/28
f 8/35/28 7/34/27 2/36/29
s 6
f 12/60/30 13/61/31 10/62/32
f 10/62/32 13/61/31 9/63/33
f 10/62/32 11/64/34 12/60/30
f 12/60/30 11/64/34 15/66/35
f 15/66/35 11/64/34 14/93/36
f 11/71/34 8/72/37 14/73/36
f 8/74/37 9/75/33 14/76/36
f 19/67/38 13/61/31 18/94/39
f 13/61/31 14/69/36 18/94/39
f 19/67/38 16/65/40 13/61/31
f 13/61/31 16/65/40 9/63/33
f 16/65/40 17/68/41 9/63/33
f 9/77/33 17/78/41 14/79/36
f 17/91/41 18/70/39 14/92/36
s 8
f 15/37/42 14/38/43 21/39/44
f 21/39/44 14/38/43 20/40/45
s 9
f 21/80/46 20/81/47 23/82/48
f 23/82/48 20/81/47 22/83/49
s 10
f 23/41/50 22/42/51 12/43/52
f 12/43/52 22/42/51 13/44/53
s 11
f 13/11/54 22/12/55 14/13/56
f 14/13/56 22/12/55 20/14/57
s 12
f 12/15/58 15/16/59 23/17/60
f 23/17/60 15/16/59 21/18/61
s 13
f 17/45/62 24/46/63 18/47/64
f 18/47/64 24/46/63 25/48/65
s 14
f 16/19/66 26/20/67 17/21/68
f 17/21/68 26/20/67 24/23/69
s 15
f 16/19/70 27/22/71 26/20/72
f 19/49/73 28/50/74 16/51/70
f 16/51/70 28/50/74 27/52/71
s 16
f 18/24/75 29/25/76 19/26/77
f 19/26/77 29/25/76 28/28/78
s off
f 18/24/79 25/27/80 29/25/81
s 17
f 25/84/82 24/85/83 30/86/84
f 24/85/83 26/87/85 30/86/84
f 26/87/85 27/89/86 30/86/84
f 27/89/86 28/90/87 30/86/84
f 28/90/87 29/88/88 30/86/84
f 29/88/88 25/84/82 30/86/84
