# This file uses centimeters as units for non-parametric coordinates.

v 0.000000 -0.336081 0.507045
v 0.407413 0.000000 0.535066
v 0.000000 0.000428 0.807625
v 0.000000 0.444444 0.250000
v 0.437212 0.494181 -0.191593
v 0.000000 0.513042 -0.077113
v 0.439843 0.694718 -0.603054
v 0.566716 0.694718 -0.603054
v 0.439843 0.533217 -0.603054
v 0.566716 0.533791 -0.603053
v 0.000000 0.120160 -0.208360
v 0.136327 0.120160 -0.208360
v 0.499699 -0.052582 -0.205279
v 0.000000 -0.482118 -0.075240
v 0.184219 -0.401409 -0.541824
v 0.367193 -0.402564 -0.538486
v 0.182704 -0.579273 -0.533700
v 0.349641 -0.583321 -0.491436
v 0.361099 -0.376660 -0.019912
v 0.445490 0.251037 -0.259834
v 0.110601 -0.239888 -0.208360
v -0.407413 0.000000 0.535066
v -0.437212 0.494181 -0.191593
v -0.439843 0.694718 -0.603054
v -0.566716 0.694718 -0.603054
v -0.439843 0.533217 -0.603054
v -0.566716 0.533791 -0.603053
v -0.136327 0.120160 -0.208360
v -0.499699 -0.052582 -0.205279
v -0.184219 -0.401409 -0.541824
v -0.367193 -0.402564 -0.538486
v -0.182704 -0.579273 -0.533700
v -0.349641 -0.583321 -0.491436
v -0.361099 -0.376660 -0.019912
v -0.445490 0.251037 -0.259834
v -0.110601 -0.239888 -0.208360
vt 0.502518 -0.003363
vt 0.635496 0.120184
vt 0.497255 0.125557
vt 0.600694 0.297304
vt 0.502393 0.334163
vt 0.629689 0.431302
vt 0.492002 0.437801
vt 0.562500 0.500000
vt 0.625000 0.500000
vt 0.562500 0.562500
vt 0.625000 0.562500
vt 0.498647 0.606974
vt 0.535571 0.607687
vt 0.632344 0.626861
vt 0.497579 0.823719
vt 0.562500 0.687500
vt 0.625000 0.687500
vt 0.562789 0.748212
vt 0.625000 0.750000
vt 0.637222 0.819403
vt 0.500881 1.000885
vt 0.875000 0.000000
vt 0.785031 0.015971
vt 0.875000 0.062500
vt 0.835063 0.120352
vt 0.875000 0.187500
vt 0.863831 0.158125
vt 0.875000 0.250000
vt 0.804129 0.246361
vt 0.540458 0.687500
vt 0.625773 0.606023
vt 0.515758 -0.001311
vt 0.636113 0.120295
vt 0.498056 0.125796
vt 0.599230 0.286563
vt 0.500792 0.330012
vt 0.629744 0.431469
vt 0.496236 0.437195
vt 0.562500 0.500000
vt 0.625000 0.500000
vt 0.562500 0.562500
vt 0.535931 0.607636
vt 0.625000 0.562500
vt 0.625773 0.606023
vt 0.562500 0.687500
vt 0.540458 0.687500
vt 0.632344 0.626861
vt 0.625000 0.687500
vt 0.562809 0.748209
vt 0.625000 0.750000
vt 0.497166 0.822771
vt 0.637153 0.819508
vt 0.498741 1.000657
vt 0.783762 0.015462
vt 0.875000 0.000000
vt 0.875000 0.062500
vt 0.835027 0.120450
vt 0.863820 0.158144
vt 0.875000 0.187500
vt 0.875000 0.250000
vt 0.804132 0.246362
vt 0.498656 0.606941
vn 0.445953 -0.596260 0.667533
vn 0.445953 -0.596260 0.667533
vn 0.445953 -0.596260 0.667533
vn 0.385309 0.721890 0.574815
vn 0.385309 0.721890 0.574815
vn 0.385309 0.721890 0.574815
vn 0.095521 0.974236 0.204303
vn 0.095521 0.974236 0.204303
vn 0.095521 0.974236 0.204303
vn 0.118249 0.892316 0.435649
vn 0.118249 0.892316 0.435649
vn 0.118249 0.892316 0.435649
vn 0.118249 0.892316 0.435649
vn -0.765907 -0.036372 -0.641921
vn -0.765907 -0.036372 -0.641921
vn -0.765907 -0.036372 -0.641921
vn -0.765907 -0.036372 -0.641921
vn 0.000005 -0.000004 -1.000000
vn 0.000005 -0.000004 -1.000000
vn 0.000005 -0.000004 -1.000000
vn 0.000005 -0.000004 -1.000000
vn 0.155424 -0.761809 -0.628881
vn 0.155424 -0.761809 -0.628881
vn 0.155424 -0.761809 -0.628881
vn 0.155424 -0.761809 -0.628881
vn -0.966591 0.069066 -0.246846
vn -0.966591 0.069066 -0.246846
vn -0.966590 0.069066 -0.246846
vn 0.195098 0.583865 -0.788060
vn 0.195098 0.583865 -0.788060
vn 0.195098 0.583865 -0.788060
vn 0.195098 0.583865 -0.788060
vn -0.976638 -0.001494 -0.214887
vn -0.976638 -0.001494 -0.214887
vn -0.976638 -0.001494 -0.214887
vn 0.125322 -0.157366 -0.979556
vn 0.125322 -0.157366 -0.979556
vn 0.125322 -0.157366 -0.979556
vn 0.125322 -0.157366 -0.979556
vn 0.119324 -0.937075 0.328105
vn 0.119324 -0.937075 0.328105
vn 0.119324 -0.937075 0.328105
vn 0.119324 -0.937075 0.328105
vn 0.238878 -0.941879 0.236223
vn 0.238878 -0.941879 0.236223
vn 0.238878 -0.941879 0.236223
vn 0.995586 -0.092427 0.016317
vn 0.995586 -0.092427 0.016317
vn 0.995586 -0.092427 0.016317
vn 0.555016 -0.709079 0.434930
vn 0.555016 -0.709079 0.434930
vn 0.555016 -0.709079 0.434930
vn 0.925081 -0.378600 0.029783
vn 0.925081 -0.378600 0.029783
vn 0.925081 -0.378600 0.029783
vn 0.936801 -0.320821 0.139561
vn 0.936801 -0.320821 0.139561
vn 0.936801 -0.320821 0.139561
vn 0.975162 0.193481 0.107815
vn 0.975162 0.193481 0.107815
vn 0.975162 0.193481 0.107815
vn 0.954262 -0.030675 0.297393
vn 0.954262 -0.030675 0.297393
vn 0.954262 -0.030675 0.297393
vn 0.954262 -0.030675 0.297393
vn 0.709931 -0.167800 0.683989
vn 0.709931 -0.167800 0.683989
vn 0.709931 -0.167800 0.683989
vn 0.621311 0.738152 0.262877
vn 0.621311 0.738152 0.262877
vn 0.621311 0.738152 0.262877
vn -0.897275 0.190943 -0.398042
vn -0.897275 0.190943 -0.398042
vn -0.897275 0.190943 -0.398042
vn -0.380108 -0.116763 -0.917543
vn -0.380108 -0.116763 -0.917542
vn -0.380108 -0.116763 -0.917543
vn -0.380108 -0.116763 -0.917542
vn 0.000001 0.316849 -0.948476
vn 0.000001 0.316849 -0.948476
vn 0.000001 0.316849 -0.948476
vn -0.082246 -0.190458 -0.978244
vn -0.082246 -0.190458 -0.978244
vn -0.082246 -0.190458 -0.978244
vn -0.445953 -0.596260 0.667533
vn -0.445953 -0.596260 0.667533
vn -0.445953 -0.596260 0.667533
vn -0.385309 0.721890 0.574815
vn -0.385309 0.721890 0.574815
vn -0.385309 0.721890 0.574815
vn -0.095521 0.974236 0.204303
vn -0.095521 0.974236 0.204303
vn -0.095521 0.974236 0.204303
vn -0.118249 0.892316 0.435649
vn -0.118249 0.892316 0.435649
vn -0.118249 0.892316 0.435649
vn -0.118249 0.892316 0.435649
vn 0.765907 -0.036372 -0.641921
vn 0.765907 -0.036372 -0.641921
vn 0.765907 -0.036372 -0.641921
vn 0.765907 -0.036372 -0.641921
vn -0.000005 -0.000004 -1.000000
vn -0.000005 -0.000004 -1.000000
vn -0.000005 -0.000004 -1.000000
vn -0.000005 -0.000004 -1.000000
vn -0.155424 -0.761809 -0.628881
vn -0.155424 -0.761809 -0.628881
vn -0.155424 -0.761809 -0.628881
vn -0.155424 -0.761809 -0.628881
vn 0.966591 0.069066 -0.246846
vn 0.966590 0.069066 -0.246846
vn 0.966591 0.069066 -0.246846
vn -0.195098 0.583865 -0.788060
vn -0.195098 0.583865 -0.788060
vn -0.195098 0.583865 -0.788060
vn -0.195098 0.583865 -0.788060
vn 0.976638 -0.001494 -0.214887
vn 0.976638 -0.001494 -0.214887
vn 0.976638 -0.001494 -0.214887
vn -0.125322 -0.157366 -0.979556
vn -0.125322 -0.157366 -0.979556
vn -0.125322 -0.157366 -0.979556
vn -0.125322 -0.157366 -0.979556
vn -0.119324 -0.937075 0.328105
vn -0.119324 -0.937075 0.328105
vn -0.119324 -0.937075 0.328105
vn -0.119324 -0.937075 0.328105
vn -0.238878 -0.941879 0.236223
vn -0.238878 -0.941879 0.236223
vn -0.238878 -0.941879 0.236223
vn -0.995586 -0.092427 0.016317
vn -0.995586 -0.092427 0.016317
vn -0.995586 -0.092427 0.016317
vn -0.555016 -0.709079 0.434930
vn -0.555016 -0.709079 0.434930
vn -0.555016 -0.709079 0.434930
vn -0.925081 -0.378600 0.029783
vn -0.925081 -0.378600 0.029783
vn -0.925081 -0.378600 0.029783
vn -0.936801 -0.320821 0.139561
vn -0.936801 -0.320821 0.139561
vn -0.936801 -0.320821 0.139561
vn -0.975162 0.193481 0.107815
vn -0.975162 0.193481 0.107815
vn -0.975162 0.193481 0.107815
vn -0.954262 -0.030675 0.297393
vn -0.954262 -0.030675 0.297393
vn -0.954262 -0.030675 0.297393
vn -0.954262 -0.030675 0.297393
vn -0.709931 -0.167800 0.683989
vn -0.709931 -0.167800 0.683989
vn -0.709931 -0.167800 0.683989
vn -0.621311 0.738152 0.262877
vn -0.621311 0.738152 0.262877
vn -0.621311 0.738152 0.262877
vn 0.897275 0.190943 -0.398042
vn 0.897275 0.190943 -0.398042
vn 0.897275 0.190943 -0.398042
vn 0.380108 -0.116763 -0.917543
vn 0.380108 -0.116763 -0.917542
vn 0.380108 -0.116763 -0.917543
vn 0.380108 -0.116763 -0.917542
vn -0.000001 0.316849 -0.948476
vn -0.000001 0.316849 -0.948476
vn -0.000001 0.316849 -0.948476
vn 0.082246 -0.190458 -0.978244
vn 0.082246 -0.190458 -0.978244
vn 0.082246 -0.190458 -0.978244
s off
f 1/1/1 2/2/2 3/3/3
f 3/3/4 2/2/5 4/4/6
f 4/5/7 5/6/8 6/7/9
f 6/7/10 5/6/11 8/9/12 7/8/13
f 6/7/14 7/8/15 9/10/16 12/13/17
f 7/8/18 8/9/19 10/11/20 9/10/21
f 9/10/22 10/11/23 20/31/24 12/13/25
f 12/13/26 15/16/27 21/30/28
f 12/13/29 13/14/30 16/17/31 15/16/32
f 21/30/33 15/16/34 17/18/35
f 15/16/36 16/17/37 18/19/38 17/18/39
f 17/18/40 18/19/41 19/20/42 14/15/43
f 14/15/44 19/20/45 1/21/46
f 19/23/47 18/22/48 16/24/49
f 1/1/50 19/23/51 2/2/52
f 19/23/53 16/24/54 13/25/55
f 2/2/56 19/23/57 13/25/58
f 2/2/59 13/25/60 20/27/61
f 20/27/62 10/26/63 8/28/64 5/29/65
f 20/27/66 5/29/67 4/4/68
f 2/2/69 20/27/70 4/4/71
f 14/15/72 21/30/73 17/18/74
f 11/12/75 12/13/76 21/30/77 14/15/78
f 6/7/79 12/13/80 11/12/81
f 12/13/82 20/31/83 13/14/84
f 1/32/85 3/34/86 22/33/87
f 3/34/88 4/35/89 22/33/90
f 4/36/91 6/38/92 23/37/93
f 6/38/94 24/39/95 25/40/96 23/37/97
f 6/38/98 28/42/99 26/41/100 24/39/101
f 24/39/102 26/41/103 27/43/104 25/40/105
f 26/41/106 28/42/107 35/44/108 27/43/109
f 28/42/110 36/46/111 30/45/112
f 28/42/113 30/45/114 31/48/115 29/47/116
f 36/46/117 32/49/118 30/45/119
f 30/45/120 32/49/121 33/50/122 31/48/123
f 32/49/124 14/51/125 34/52/126 33/50/127
f 14/51/128 1/53/129 34/52/130
f 34/54/131 31/56/132 33/55/133
f 1/32/134 22/33/135 34/54/136
f 34/54/137 29/57/138 31/56/139
f 22/33/140 29/57/141 34/54/142
f 22/33/143 35/58/144 29/57/145
f 35/58/146 23/61/147 25/60/148 27/59/149
f 35/58/150 4/35/151 23/61/152
f 22/33/153 4/35/154 35/58/155
f 14/51/156 32/49/157 36/46/158
f 11/62/159 14/51/160 36/46/161 28/42/162
f 6/38/163 11/62/164 28/42/165
f 28/42/166 29/47/167 35/44/168
