# Blender v2.80 (sub 75) OBJ File: 'Ship01.blend'
# www.blender.org
mtllib Ship01.mtl
o Cube
v -0.048810 0.361017 -1.324648
v -0.048810 -0.315666 -1.095604
v -0.026578 0.093030 1.126519
v -0.021735 -0.081488 1.369521
v 0.048810 0.361017 -1.324648
v 0.048810 -0.315666 -1.095604
v 0.026578 0.093030 1.126519
v 0.021735 -0.081488 1.369521
v -0.048810 -0.180508 -1.017940
v -0.048810 0.000000 0.000000
v 0.048810 0.000000 0.000000
v -0.048810 -0.180508 -1.142940
v 0.048810 -0.180508 -1.142940
v 0.048810 0.537312 -0.393632
v -0.048810 -0.361017 -0.393632
v 0.048810 -0.361017 -0.393632
v -0.048810 0.180508 -1.264380
v 0.048810 0.180508 -1.264380
v -0.048810 0.537312 -0.393632
v -0.048810 -0.180508 -0.393632
v -0.032374 -0.180508 0.800419
v -0.032374 0.180508 0.800419
v 0.048810 -0.180508 -0.393632
v 0.032374 -0.180508 0.800419
v 0.032374 0.180508 0.800419
v -0.048810 0.180508 -0.393632
v 0.048810 0.180508 -0.393632
v -0.048810 0.180508 -1.139380
v 0.048810 -0.180508 -1.017940
v 0.048810 -0.180508 -0.837643
v 0.048810 0.180508 -1.139380
v -0.048810 -0.180508 -0.837643
v -0.048810 0.180508 -0.837643
v 0.048810 0.180508 -0.837643
v -0.228226 0.180508 -0.837643
v -0.228226 0.180508 -0.393632
v 0.156736 0.000000 -0.000000
v 0.228226 0.180508 -0.393632
v -0.156736 0.000000 0.000000
v 0.228226 -0.180508 -0.393632
v 0.228226 -0.180508 -0.837643
v 0.228226 0.180508 -0.837643
v -0.228226 -0.180508 -0.837643
v -0.228226 -0.180508 -0.393632
v 0.415144 0.000000 -0.393632
v 0.415144 0.000000 -0.837643
v -0.415144 0.000000 -0.837643
v -0.415144 0.000000 -0.393632
v 0.916479 0.000000 -0.498249
v 0.914510 0.000000 -0.838492
v -0.914510 0.000000 -0.838492
v -0.916479 0.000000 -0.498249
v 0.916479 0.042119 -0.498249
v -0.916479 0.042119 -0.498249
v 0.987520 0.100241 -0.837658
v 0.916454 0.000000 0.432308
v 0.916454 0.042119 0.432308
v -0.916454 0.000000 0.432308
v -0.916454 0.042119 0.432308
v 0.989463 0.000000 0.433141
v 0.989463 0.042119 0.433141
v -0.989463 0.000000 0.433141
v -0.989463 0.042119 0.433141
v 0.988491 0.042119 -0.498649
v -0.988491 0.042119 -0.498649
v 0.988491 -0.084069 -0.498649
v 0.914510 -0.084069 -0.838492
v -0.914510 -0.084069 -0.838492
v -0.916479 -0.084069 -0.498249
v -0.987520 -0.084069 -0.837658
v -0.988491 -0.084069 -0.498649
v 0.916479 -0.084069 -0.498249
v 0.987520 -0.084069 -0.837658
v 0.916479 0.100241 -0.534742
v 0.914510 0.100241 -0.838492
v -0.914510 0.100241 -0.838492
v -0.916479 0.100241 -0.534742
v -0.987520 0.100241 -0.837658
v -0.988491 0.100241 -0.535142
v 0.988491 0.100241 -0.535142
v -0.048810 -0.386242 -0.738507
v 0.048810 -0.386242 -0.738507
v -0.048810 -0.315666 -0.767214
v 0.048810 -0.315666 -0.767214
v 0.026578 -0.081488 1.046404
v -0.026578 -0.081488 1.046404
v -0.015939 -0.180508 1.600839
v -0.015939 0.180508 1.668105
v 0.015939 0.180508 1.668105
v 0.015939 -0.180508 1.600839
vt 0.375000 0.562500
vt 0.312500 0.562500
vt 0.312500 0.625000
vt 0.312500 0.750000
vt 0.562500 0.687500
vt 0.562500 0.718750
vt 0.562500 0.734375
vt 0.562500 0.750000
vt 0.625000 0.750000
vt 0.625000 0.687500
vt 0.875000 0.500000
vt 0.812500 0.500000
vt 0.812500 0.750000
vt 0.875000 0.750000
vt 0.488911 0.540458
vt 0.553360 0.540458
vt 0.432489 0.404297
vt 0.299734 0.533203
vt 0.625000 0.500000
vt 0.593750 0.562500
vt 0.437500 0.625000
vt 0.437500 0.500000
vt 0.375000 0.687500
vt 0.437500 0.687500
vt 0.625000 0.812500
vt 0.375000 0.812500
vt 0.375000 1.000000
vt 0.625000 1.000000
vt 0.375000 0.000000
vt 0.375000 0.062500
vt 0.625000 0.062500
vt 0.625000 0.000000
vt 0.250000 0.625000
vt 0.187500 0.562500
vt 0.187500 0.625000
vt 0.312500 0.687500
vt 0.375000 0.718750
vt 0.375000 0.734375
vt 0.375000 0.750000
vt 0.437500 0.750000
vt 0.437500 0.734375
vt 0.437500 0.718750
vt 0.125000 0.531250
vt 0.125000 0.515625
vt 0.437500 0.718750
vt 0.437500 0.687500
vt 0.312500 0.500000
vt 0.312500 0.515625
vt 0.312500 0.531250
vt 0.375000 0.500000
vt 0.125000 0.500000
vt 0.125000 0.562500
vt 0.187500 0.531250
vt 0.187500 0.515625
vt 0.187500 0.500000
vt 0.437500 0.562500
vt 0.500000 0.625000
vt 0.562500 0.625000
vt 0.187500 0.562500
vt 0.187500 0.531250
vt 0.687500 0.500000
vt 0.687500 0.750000
vt 0.312500 0.562500
vt 0.250000 0.625000
vt 0.500000 0.718750
vt 0.250000 0.531250
vt 0.375000 0.250000
vt 0.625000 0.250000
vt 0.625000 0.500000
vt 0.625000 0.625000
vt 0.531250 0.687500
vt 0.500000 0.625000
vt 0.500000 0.687500
vt 0.000000 0.000000
vt 0.000000 0.000000
vt 0.000000 0.000000
vt 0.000000 0.000000
vt 0.562500 0.687500
vt 0.562500 0.718750
vt 0.312500 0.531250
vt 0.250000 0.562500
vt 0.125000 0.750000
vt 0.156250 0.687500
vt 0.000000 0.000000
vt 0.000000 0.000000
vt 0.000000 0.000000
vt 0.000000 0.000000
vt 0.000000 0.000000
vt 0.000000 0.000000
vt 0.000000 0.000000
vt 0.000000 0.000000
vt 0.000000 0.000000
vt 0.000000 0.000000
vt 0.000000 0.000000
vt 0.000000 0.000000
vt 0.000000 0.000000
vt 0.000000 0.000000
vt 0.000000 0.000000
vt 0.000000 0.000000
vt 0.000000 0.000000
vt 0.000000 0.000000
vt 0.000000 0.000000
vt 0.000000 0.000000
vt 0.000000 0.000000
vt 0.000000 0.000000
vt 0.000000 0.000000
vt 0.000000 0.000000
vt 0.000000 0.000000
vt 0.000000 0.000000
vt 0.000000 0.000000
vt 0.000000 0.000000
vt 0.000000 0.000000
vt 0.000000 0.000000
vt 0.000000 0.000000
vt 0.000000 0.000000
vt 0.000000 0.000000
vt 0.000000 0.000000
vt 0.000000 0.000000
vt 0.000000 0.000000
vt 0.562500 0.500000
vt 0.562500 0.250000
vt 0.437500 0.250000
vt 0.491364 0.522042
vt 0.380150 0.404297
vt 0.560115 0.522042
vt 0.356377 0.533203
vn -0.9998 0.0073 0.0159
vn 1.0000 0.0000 0.0000
vn 0.0000 -0.3167 -0.9485
vn 0.0000 -0.4172 0.9088
vn 0.9998 0.0073 0.0159
vn 0.9997 -0.0180 0.0165
vn 0.0000 -0.9959 0.0901
vn 0.0000 0.9825 -0.1861
vn -0.9999 0.0000 0.0165
vn 0.0000 -0.3768 -0.9263
vn 0.0000 -1.0000 0.0000
vn -1.0000 0.0000 0.0000
vn 0.9999 0.0000 0.0165
vn 0.0000 -0.3188 -0.9478
vn 0.0000 0.9090 0.4168
vn 0.0000 0.0000 -1.0000
vn 0.0000 0.9854 0.1705
vn 0.0000 -0.3305 -0.9438
vn 0.0000 1.0000 0.0000
vn 0.0000 0.3188 0.9478
vn 0.6320 0.6545 0.4149
vn 0.6320 -0.6545 0.4149
vn -0.6947 0.7193 0.0000
vn 0.0000 -0.9090 0.4168
vn 0.6947 -0.7193 0.0000
vn -0.6947 -0.7193 0.0000
vn -0.6320 0.6545 0.4149
vn -0.6320 -0.6545 0.4149
vn -0.9997 -0.0180 0.0165
vn 1.0000 0.0000 -0.0058
vn 0.0047 -0.5317 -0.8469
vn -1.0000 0.0001 0.0019
vn 0.0114 0.0000 0.9999
vn -0.0114 0.0000 -0.9999
vn 0.0114 0.0000 -0.9999
vn 0.0003 0.9959 -0.0899
vn -0.0003 0.9959 -0.0899
vn 0.6947 0.7193 0.0000
vn -1.0000 0.0000 -0.0058
vn -0.0047 -0.5317 -0.8469
vn 0.0000 -0.9973 0.0729
vn -0.0114 0.0000 0.9999
vn 1.0000 -0.0011 -0.0060
vn -1.0000 -0.0011 -0.0060
vn 1.0000 0.0003 0.0029
vn 1.0000 0.0000 0.0010
vn 0.0000 -0.1832 0.9831
vn 0.0000 -0.8122 -0.5833
vn -0.9998 -0.0014 0.0189
vn -0.9998 0.0043 0.0189
vn 0.9998 0.0043 0.0189
vn 0.9998 -0.0014 0.0189
vn -0.9998 -0.0021 0.0212
vn 0.9998 -0.0021 0.0212
vn -0.9998 -0.0030 0.0203
vn 0.9998 -0.0030 0.0203
usemtl Material
s off
f 19/1/1 26/2/1 22/3/1 88/4/1
f 27/5/2 34/6/2 31/7/2 18/8/2 5/9/2 14/10/2
f 5/11/3 18/12/3 17/13/3 1/14/3
f 85/15/4 7/16/4 3/17/4 86/18/4
f 89/19/5 25/20/5 27/5/5 14/10/5
f 24/21/6 90/22/6 16/23/6 23/24/6
f 15/25/7 16/26/7 90/27/7 87/28/7
f 1/29/8 19/30/8 14/31/8 5/32/8
f 10/33/9 20/34/9 21/35/9 22/36/9 26/2/9
f 16/23/2 82/37/2 84/38/2 6/39/2 13/40/2 29/41/2 30/42/2 23/24/2
f 84/38/10 82/37/10 81/43/10 83/44/10
f 30/42/11 41/45/11 40/46/11 23/24/11
f 17/47/12 28/48/12 33/49/12 26/2/12 19/1/12 1/50/12
f 2/51/12 83/44/12 81/43/12 15/52/12 20/34/12 32/53/12 9/54/12 12/55/12
f 24/56/13 23/24/13 11/57/13 27/5/13 25/58/13
f 20/34/11 44/59/11 43/60/11 32/53/11
f 18/12/14 13/61/14 12/62/14 17/13/14
f 9/54/12 28/48/12 17/13/12 12/55/12
f 26/2/15 36/63/15 39/64/15 10/33/15
f 46/65/16 41/45/16 30/42/16 32/53/16 43/60/16 47/66/16
f 14/31/17 19/30/17 88/67/17 89/68/17
f 34/6/11 33/49/11 28/48/11 31/7/11
f 29/41/2 13/40/2 18/12/2 31/7/2
f 13/61/18 6/69/18 2/70/18 12/62/18
f 30/42/19 29/41/19 9/54/19 32/53/19
f 28/48/20 9/54/20 29/41/20 31/7/20
f 38/71/21 37/72/21 45/73/21
f 45/73/22 37/72/22 40/46/22
f 47/74/23 48/75/23 36/76/23 35/77/23
f 23/24/24 40/46/24 37/72/24 11/57/24
f 27/5/19 38/78/19 42/79/19 34/6/19
f 40/46/25 41/45/25 46/65/25 45/73/25
f 33/49/19 35/80/19 36/63/19 26/2/19
f 11/57/15 37/72/15 38/78/15 27/5/15
f 10/33/24 39/64/24 44/59/24 20/34/24
f 44/59/26 48/81/26 47/66/26 43/60/26
f 36/63/27 48/81/27 39/64/27
f 48/81/28 44/59/28 39/64/28
f 15/52/29 87/82/29 21/83/29 20/34/29
f 50/84/30 49/85/30 72/86/30 67/87/30
f 33/49/16 34/6/16 42/79/16 46/65/16 47/66/16 35/80/16
f 71/88/19 69/89/19 68/90/19 70/91/19
f 49/85/19 50/84/19 46/92/19 45/93/19
f 51/94/19 52/95/19 48/75/19 47/74/19
f 65/96/31 79/97/31 77/98/31 54/99/31
f 58/100/12 59/101/12 54/99/12 52/95/12 69/89/12
f 61/102/32 64/103/32 80/104/32 55/105/32 73/106/32 66/107/32 60/108/32
f 51/94/33 76/109/33 78/110/33 70/91/33 68/90/33
f 58/100/34 62/111/34 63/112/34 59/101/34
f 57/113/35 61/102/35 60/108/35 56/114/35
f 53/115/2 57/113/2 56/114/2 49/85/2
f 53/115/11 64/103/11 61/102/11 57/113/11
f 73/106/19 67/87/19 72/86/19 66/107/19
f 66/107/36 72/86/36 56/114/36 60/108/36
f 56/114/2 72/86/2 49/85/2
f 62/111/37 58/100/37 69/89/37 71/88/37
f 45/93/38 46/92/38 42/116/38 38/117/38
f 51/94/39 68/90/39 69/89/39 52/95/39
f 54/99/11 59/101/11 63/112/11 65/96/11
f 75/118/11 55/105/11 80/104/11 74/119/11
f 76/109/11 77/98/11 79/97/11 78/110/11
f 53/115/40 74/119/40 80/104/40 64/103/40
f 83/44/11 2/70/11 6/39/11 84/38/11
f 82/37/41 16/23/41 15/25/41 81/43/41
f 75/118/42 50/84/42 67/87/42 73/106/42 55/105/42
f 50/84/43 75/118/43 74/119/43 53/115/43 49/85/43
f 51/94/44 52/95/44 54/99/44 77/98/44 76/109/44
f 71/88/45 70/91/45 78/110/45 79/97/45 65/96/45
f 71/88/46 65/96/46 63/112/46 62/111/46
f 89/120/47 88/121/47 87/122/47 90/22/47
f 8/123/48 4/124/48 3/17/48 7/125/48
f 86/18/49 21/83/49 87/122/49 4/124/49
f 3/126/50 88/121/50 22/36/50
f 7/125/51 25/20/51 89/19/51
f 8/123/52 90/22/52 24/56/52 85/15/52
f 4/124/53 87/122/53 88/121/53 3/17/53
f 7/125/54 89/19/54 90/22/54 8/123/54
f 3/126/55 22/36/55 21/83/55 86/18/55
f 85/15/56 24/56/56 25/20/56 7/16/56
f 86/18/19 4/124/19 8/123/19 85/15/19
l 64 66
