# Blender v2.80 (sub 75) OBJ File: 'Ship06.blend'
# www.blender.org
mtllib Ship06.mtl
o Ship_92Faces_Cube
v 0.665399 0.088933 -0.992743
v 1.000000 -0.505133 -1.000000
v 0.394415 -0.411356 2.485077
v 0.651213 -1.232130 2.135731
v -0.659373 0.089419 -0.997089
v -1.000000 -0.505133 -1.000000
v -0.382758 -0.411356 2.485077
v -0.651412 -1.232130 2.135731
v -1.214914 -0.255490 0.000000
v 0.846801 0.290605 0.004272
v -0.841868 0.296041 0.007671
v 1.214914 -0.304084 0.000000
v -0.000099 -0.411356 2.485077
v -0.004670 -0.446849 2.469173
v -0.001417 1.085374 -1.463962
v 0.320986 -0.446849 2.469173
v -0.001417 1.246055 -0.799438
v 0.325557 -0.411356 2.485077
v 0.500000 -0.792021 0.000000
v -0.325756 -0.411356 2.485077
v -0.500000 -0.792021 0.000000
v -0.330327 -0.446849 2.469173
v -0.894054 -1.000000 0.866944
v 0.650989 0.066272 0.866944
v -0.636282 0.066272 0.866944
v 0.894535 -1.000000 0.866944
v 0.000240 0.066272 1.115403
v 0.447387 0.066272 0.866944
v 0.496491 -0.653311 0.862086
v -0.503509 -0.653311 0.862086
v -0.446907 0.066272 0.866944
v 1.041000 -0.400212 0.328573
v -1.041000 -0.400212 0.328573
v 0.498245 -0.577991 0.431043
v -0.501755 -0.577991 0.431043
v 1.582470 -0.989481 -1.444283
v 1.557085 -1.033296 -1.448249
v -1.566829 -0.953024 -1.408566
v -1.563492 -1.004721 -1.409490
v -1.844860 -1.134391 -0.920635
v 1.857051 -1.114838 -0.926847
v -1.871591 -1.082288 -0.891542
v 1.835494 -1.168274 -0.917490
v 0.500000 -0.792021 -0.740158
v 0.500000 0.022742 -1.000000
v -0.500000 -0.792021 -0.740158
v -0.500000 0.022742 -1.000000
v -0.500000 0.022742 -1.000000
v 0.500000 -0.792021 -0.740158
v 0.500000 0.022742 -1.000000
v -0.500000 -0.792021 -0.740158
v -0.223333 0.286347 0.850943
v 0.000240 0.258595 0.973969
v 0.223814 0.286347 0.850943
v 0.182492 0.092505 -1.000000
v -0.175710 0.092480 -1.000000
v -0.748829 0.469683 -0.154687
v -0.773195 0.537784 -0.135623
v -0.788553 0.304691 -0.081966
v 0.799713 0.305134 -0.082175
v 0.753441 0.469041 -0.154047
v 0.776870 0.537796 -0.135589
v 0.341201 0.589132 -0.262923
v 0.326635 0.663990 -0.256349
v -0.368466 0.589791 -0.262740
v -0.357252 0.664002 -0.256328
v 0.251446 0.452682 -0.207609
v 0.183496 0.486547 -0.138806
v -0.253307 0.451006 -0.206744
v -0.195973 0.486877 -0.139783
v -0.006239 0.419600 0.156789
v 0.264300 -0.685435 -1.265087
v 0.230780 -0.657411 -1.220255
v -0.264300 -0.685435 -1.265087
v -0.230780 -0.657411 -1.220255
v -0.607133 0.180248 -0.985908
v -0.628788 0.207535 -1.044318
v 0.632424 0.124460 -0.946403
v -0.625131 0.124460 -0.946403
v 0.230780 -0.180612 -1.220255
v 0.270191 -0.145469 -1.268803
v -0.270191 -0.145469 -1.268803
v -0.230780 -0.180612 -1.220255
v 0.335668 0.180248 -0.985908
v 0.326635 0.211231 -1.046048
v 0.629344 0.207540 -1.044304
v 0.608947 0.180248 -0.985908
v -0.357252 0.211225 -1.046060
v -0.364786 0.180248 -0.985908
v -0.269176 0.124460 -0.946403
v 0.259940 0.124460 -0.946403
v -0.001417 1.246055 -0.799438
v -0.001417 1.246055 -0.799438
vt 0.166838 0.716368
vt 0.167882 0.688086
vt 0.363129 0.724436
vt 0.364439 0.730413
vt 0.665916 0.232139
vt 0.830052 0.232587
vt 0.693919 0.448363
vt 0.630371 0.424050
vt 0.236306 0.344407
vt 0.223818 0.422578
vt 0.040217 0.415348
vt 0.000263 0.299012
vt 0.479929 0.334210
vt 0.588055 0.319221
vt 0.596983 0.342416
vt 0.520303 0.398053
vt 0.339301 0.433021
vt 0.381099 0.337775
vt 0.619548 0.129307
vt 0.636387 0.027882
vt 0.640194 0.033686
vt 0.665567 0.220579
vt 0.315979 0.179672
vt 0.307330 0.348050
vt 0.243305 0.179830
vt 0.875655 0.761359
vt 0.917100 0.759880
vt 0.908235 0.874203
vt 0.847014 0.876878
vt 0.479728 0.332270
vt 0.385218 0.193428
vt 0.482595 0.198650
vt 0.482460 0.200321
vt 0.167778 0.826052
vt 0.194604 0.771207
vt 0.367943 0.770385
vt 0.364515 0.810509
vt 0.169559 0.856275
vt 0.362879 0.817731
vt 0.597274 0.279586
vt 0.592471 0.211783
vt 0.593050 0.210833
vt 0.598481 0.246354
vt 0.235447 0.102149
vt 0.003507 0.208534
vt 0.051847 0.096000
vt 0.524822 0.133810
vt 0.349278 0.098794
vt 0.562552 0.242829
vt 0.516297 0.242703
vt 0.602497 0.190442
vt 0.126379 0.570074
vt 0.035066 0.650108
vt 0.067558 0.553340
vt 0.387771 0.454684
vt 0.396752 0.074002
vt 0.131169 0.972929
vt 0.077199 0.995786
vt 0.038608 0.896249
vt 0.616552 0.474489
vt 0.562334 0.539877
vt 0.572573 0.000263
vt 0.616552 0.064318
vt 0.839615 0.217801
vt 0.710095 0.014898
vt 0.000263 0.748629
vt 0.562014 0.286112
vt 0.586107 0.317509
vt 0.515690 0.286463
vt 0.806208 0.887185
vt 0.857150 0.752816
vt 0.453401 0.790008
vt 0.390620 0.790008
vt 0.390620 0.725154
vt 0.453401 0.725154
vt 0.692058 0.709881
vt 0.740106 0.746208
vt 0.730700 0.753599
vt 0.697987 0.728866
vt 0.624653 0.429152
vt 0.695193 0.456205
vt 0.708666 0.006100
vt 0.414264 0.906166
vt 0.254915 0.999737
vt 0.250194 0.540403
vt 0.414264 0.630644
vt 0.001567 0.796608
vt 0.698036 0.914907
vt 0.775390 0.914001
vt 0.767481 0.938439
vt 0.711315 0.936223
vt 0.670902 0.892926
vt 0.659855 0.757847
vt 0.694015 0.762606
vt 0.704777 0.876281
vt 0.821886 0.337016
vt 0.876390 0.672248
vt 0.927026 0.670550
vt 0.917043 0.680188
vt 0.879893 0.681434
vt 0.748499 0.754686
vt 0.801666 0.886988
vt 0.761685 0.877775
vt 0.731042 0.763557
vt 0.614834 0.317429
vt 0.946801 0.754136
vt 0.941302 0.890053
vt 0.369384 0.728424
vt 0.828534 0.117070
vt 0.588785 0.925280
vt 0.590807 0.870031
vt 0.604939 0.898225
vt 0.608948 0.829076
vt 0.639283 0.899497
vt 0.454496 0.925361
vt 0.495103 0.892683
vt 0.454985 0.870425
vt 0.603805 0.967465
vt 0.817459 0.912924
vt 0.896538 0.914287
vt 0.882475 0.935131
vt 0.822229 0.935888
vt 0.003493 0.253907
vt 0.794880 0.667265
vt 0.765320 0.519033
vt 0.814019 0.517540
vt 0.906937 0.884762
vt 0.845476 0.886348
vt 0.928870 0.899814
vt 0.946801 0.998872
vt 0.934784 0.989321
vt 0.655302 0.996426
vt 0.682016 0.902158
vt 0.668390 0.987419
vt 0.763194 0.887168
vt 0.706089 0.886591
vt 0.788291 0.897785
vt 0.819813 0.896725
vt 0.932930 0.743603
vt 0.917174 0.680306
vt 0.925701 0.672232
vt 0.698228 0.691171
vt 0.675603 0.747119
vt 0.690720 0.681872
vt 0.875577 0.751323
vt 0.917388 0.750041
vt 0.520553 0.281674
vt 0.558225 0.281505
vt 0.519549 0.246904
vt 0.520404 0.281612
vt 0.558168 0.246953
vt 0.693674 0.752824
vt 0.865171 0.744540
vt 0.369781 0.811242
vt 0.372854 0.769803
vt 0.900659 0.658301
vt 0.808297 0.669112
vt 0.820488 0.518662
vt 0.948925 0.527592
vt 0.778152 0.668698
vt 0.685449 0.661357
vt 0.632300 0.532691
vt 0.760345 0.518599
vt 0.900659 0.658301
vt 0.996110 0.515320
vt 0.584867 0.521939
vt 0.685449 0.661357
vn 0.0000 0.9591 0.2831
vn 0.6959 0.6756 -0.2436
vn -0.8506 -0.5099 -0.1284
vn -0.2386 -0.2260 -0.9445
vn 0.5444 -0.8382 0.0317
vn 0.7178 -0.3712 -0.5890
vn 0.0000 -0.9851 -0.1721
vn 0.2205 0.8784 -0.4241
vn 0.0000 -1.0000 0.0000
vn 0.0986 0.9467 0.3067
vn 0.0000 0.0000 -1.0000
vn 0.8560 -0.5009 -0.1282
vn -0.5444 -0.8382 0.0317
vn -0.0986 0.9467 0.3067
vn 0.2042 -0.7887 -0.5799
vn 0.0000 -0.8957 0.4447
vn -0.2019 -0.7890 -0.5803
vn 0.3531 -0.8374 0.4172
vn -0.8616 -0.1005 -0.4975
vn -0.3550 -0.8379 0.4146
vn -0.0062 0.0288 -0.9996
vn -0.6871 0.4569 0.5649
vn 0.5521 -0.8324 0.0487
vn -0.6795 -0.7328 0.0369
vn 0.7294 0.4478 0.5171
vn -0.6187 -0.7507 0.2318
vn 0.5925 -0.7628 0.2590
vn -0.6836 0.6844 -0.2537
vn -0.1566 0.9338 0.3217
vn 0.0000 0.8477 -0.5305
vn 0.0000 -0.9800 -0.1990
vn 0.9626 0.1675 -0.2129
vn 0.0000 0.0000 1.0000
vn -0.0000 -0.5779 -0.8161
vn 0.0155 0.0706 -0.9974
vn 0.7669 -0.3981 -0.5034
vn 0.2435 -0.2306 -0.9421
vn -0.8491 -0.0957 -0.5194
vn 0.9527 0.2124 0.2172
vn 0.8767 0.2893 0.3844
vn -0.9497 0.2245 0.2184
vn -0.8690 0.2973 0.3956
vn 0.1591 0.9351 0.3168
vn 0.1106 0.4109 0.9050
vn 0.7014 0.6375 -0.3187
vn 0.8646 0.4638 0.1933
vn -0.9655 0.1558 -0.2087
vn -0.7336 -0.3453 -0.5853
vn -0.7621 0.5763 -0.2951
vn 0.0114 -0.3948 0.9187
vn -0.8571 0.4804 0.1858
vn 0.0000 0.9755 0.2200
vn -0.4010 0.5083 0.7621
vn 0.0001 0.9809 0.1947
vn 0.4010 0.5083 0.7621
vn -0.1101 0.4010 0.9094
vn 0.6926 0.7120 0.1158
vn -0.6915 0.7115 0.1249
vn 0.0000 -0.9918 0.1274
vn 0.0000 -0.4233 -0.9060
vn -0.2934 -0.1466 0.9447
vn 0.6373 -0.0494 0.7690
vn 0.2883 0.9542 -0.0801
vn -0.3041 0.9398 -0.1556
vn 0.3130 -0.1393 0.9395
vn 0.8298 0.0727 0.5533
vn -0.8391 0.0421 0.5423
vn -0.6243 -0.1252 0.7711
vn -0.2404 0.8736 -0.4232
vn 0.0082 0.8270 -0.5621
vn -0.0049 0.8400 -0.5426
vn -0.0044 -0.8972 -0.4415
vn -0.7882 0.0023 -0.6154
vn 0.0000 0.8480 -0.5301
vn 0.7882 0.0023 -0.6154
vn 0.0000 -0.8100 -0.5864
vn 0.0049 -0.8972 -0.4415
vn 0.4879 -0.7933 -0.3642
vn -0.8018 -0.4679 -0.3718
vn 0.8184 -0.4228 -0.3893
vn -0.4147 -0.8354 -0.3608
vn 0.8616 -0.1005 -0.4975
vn -0.0087 -0.3939 0.9191
vn 0.0000 -0.4089 0.9126
vn 0.0009 0.9267 -0.3758
vn -0.0004 0.5506 -0.8347
vn -0.1417 0.0881 -0.9860
vn -0.4807 0.8268 0.2921
vn 0.4686 0.8258 0.3137
vn 0.1425 0.0767 -0.9868
vn -0.5999 0.6068 0.5214
vn -0.0002 0.8964 0.4432
vn 0.6030 0.6020 0.5234
usemtl Material
s off
f 31/1/1 25/2/1 7/3/1 20/4/1
f 1/5/2 10/6/2 41/7/2 36/8/2
f 29/9/3 26/10/3 4/11/3 16/12/3
f 44/13/4 45/14/4 1/15/4 2/16/4
f 44/13/5 2/16/5 32/17/5 19/18/5
f 6/19/6 39/20/6 38/21/6 5/22/6
f 35/23/7 34/24/7 29/9/7 30/25/7
f 86/26/8 85/27/8 64/28/8 62/29/8
f 49/30/9 44/13/9 19/18/9 21/31/9 46/32/9 51/33/9
f 28/34/10 27/35/10 13/36/10 18/37/10
f 24/38/1 28/34/1 18/37/1 3/39/1
f 55/40/11 45/14/11 48/41/11 47/42/11 56/43/11
f 23/44/12 30/25/12 22/45/12 8/46/12
f 6/47/13 46/32/13 21/31/13 33/48/13
f 27/35/14 31/1/14 20/4/14 13/36/14
f 33/48/15 35/23/15 30/25/15 23/44/15
f 19/18/16 34/24/16 35/23/16 21/31/16
f 34/24/17 32/17/17 26/10/17 29/9/17
f 19/18/18 32/17/18 34/24/18
f 82/49/19 74/50/19 51/33/19 48/41/19
f 33/48/20 21/31/20 35/23/20
f 5/51/21 56/43/21 47/42/21
f 33/52/22 11/53/22 9/54/22
f 2/16/23 12/55/23 32/17/23
f 9/56/24 6/47/24 33/48/24
f 32/57/25 12/58/25 10/59/25
f 12/55/26 2/16/26 37/60/26 43/61/26
f 6/47/27 9/56/27 40/62/27 39/63/27
f 11/64/28 5/22/28 38/21/28 42/65/28
f 70/66/29 11/53/29 25/2/29 31/1/29
f 81/67/30 82/49/30 48/41/30 50/68/30
f 74/50/31 72/69/31 49/30/31 51/33/31
f 10/70/32 1/71/32 86/26/32 62/29/32
f 49/30/33 50/68/33 45/14/33 44/13/33
f 48/41/33 51/33/33 46/32/33 47/42/33
f 50/68/33 48/41/33 45/14/33
f 73/72/11 75/73/11 83/74/11 80/75/11
f 90/76/34 79/77/34 76/78/34 89/79/34
f 45/14/35 55/40/35 1/15/35
f 37/80/36 36/8/36 41/7/36 43/81/36
f 6/47/37 5/51/37 47/42/37 46/32/37
f 39/20/38 40/82/38 42/65/38 38/21/38
f 4/83/39 26/84/39 24/38/39 3/39/39
f 32/57/40 10/59/40 24/38/40 26/84/40
f 23/85/41 8/86/41 7/3/41 25/2/41
f 11/53/42 33/52/42 23/85/42 25/2/42
f 10/59/43 68/87/43 28/34/43 24/38/43
f 59/88/44 69/89/44 65/90/44 57/91/44
f 70/92/45 56/93/45 88/94/45 66/95/45
f 12/96/46 43/81/46 41/7/46 10/6/46
f 78/97/34 91/98/34 84/99/34 87/100/34
f 5/101/47 11/102/47 58/103/47 77/104/47
f 2/105/48 1/5/48 36/8/48 37/80/48
f 55/106/49 68/107/49 64/28/49 85/27/49
f 7/3/50 8/86/50 22/108/50
f 42/65/51 40/82/51 9/109/51 11/64/51
f 54/110/52 52/111/52 53/112/52
f 31/113/53 27/114/53 53/112/53 52/111/53
f 68/115/54 71/116/54 70/117/54 52/111/54 54/110/54
f 27/114/55 28/118/55 54/110/55 53/112/55
f 67/119/56 60/120/56 61/121/56 63/122/56
f 28/118/57 68/115/57 54/110/57
f 70/117/58 31/113/58 52/111/58
f 29/9/59 16/12/59 14/123/59 22/45/59 30/25/59
f 15/124/60 55/125/60 56/126/60
f 63/127/61 61/128/61 62/29/61 64/28/61
f 67/129/62 63/127/62 64/28/62 68/107/62
f 68/107/63 10/130/63 60/131/63 67/129/63
f 11/132/64 70/92/64 69/133/64 59/134/64
f 57/135/65 65/136/65 66/95/65 58/103/65
f 58/103/66 11/102/66 59/137/66 57/135/66
f 61/128/67 60/138/67 10/70/67 62/29/67
f 70/92/68 66/95/68 65/136/68 69/133/68
f 88/94/69 77/104/69 58/103/69 66/95/69
f 91/139/70 78/140/70 1/141/70 55/106/70
f 79/142/71 90/143/71 56/93/71 5/144/71
f 85/27/72 86/26/72 87/145/72 84/146/72
f 81/67/73 72/69/73 73/147/73 80/148/73
f 72/69/74 74/50/74 75/149/74 73/150/74
f 83/151/75 75/149/75 74/50/75 82/49/75
f 82/49/76 81/67/76 80/148/76 83/151/76
f 77/104/77 88/94/77 89/152/77 76/78/77
f 84/146/78 91/139/78 55/106/78 85/27/78
f 78/153/79 87/145/79 86/26/79 1/71/79
f 76/78/80 79/77/80 5/101/80 77/104/80
f 88/94/81 56/93/81 90/143/81 89/152/81
f 72/69/82 81/67/82 50/68/82 49/30/82
f 3/39/83 16/154/83 4/83/83
f 20/4/84 7/3/84 22/108/84 14/155/84 16/154/84 3/39/84 18/37/84 13/36/84
s 1
f 92/156/85 15/157/86 56/158/87 70/159/88
f 15/160/86 92/161/85 68/162/89 55/163/90
f 93/164/91 70/159/88 71/165/92
f 71/166/92 68/162/89 17/167/93
l 18 16
l 13 14
l 20 22
