# This file uses centimeters as units for non-parametric coordinates.

v 0.399239 0.332840 -0.907616
v 0.600000 -0.023599 -0.911970
v 0.236649 0.032667 1.179076
v 0.390728 -0.459797 0.969469
v -0.395624 0.333132 -0.910223
v -0.600000 -0.023599 -0.911970
v -0.229655 0.032667 1.179076
v -0.390847 -0.459797 0.969469
v -0.728948 0.126187 -0.311970
v 0.508081 0.453844 -0.309407
v -0.505121 0.457105 -0.307367
v 0.728948 0.097030 -0.311970
v -0.000059 0.032667 1.179076
v -0.002802 0.011371 1.169534
v -0.000850 0.930705 -1.190347
v 0.192592 0.011371 1.169534
v -0.000850 1.027114 -0.791633
v 0.195334 0.032667 1.179076
v 0.300000 -0.195732 -0.311970
v -0.195454 0.032667 1.179076
v -0.300000 -0.195732 -0.311970
v -0.198196 0.011371 1.169534
v -0.536432 -0.320519 0.208196
v 0.390593 0.319244 0.208196
v -0.381769 0.319244 0.208196
v 0.536721 -0.320519 0.208196
v 0.000144 0.319244 0.357272
v 0.268432 0.319244 0.208196
v 0.297895 -0.112506 0.205282
v -0.302105 -0.112506 0.205282
v -0.268144 0.319244 0.208196
v 0.624600 0.039353 -0.114826
v -0.624600 0.039353 -0.114826
v 0.298947 -0.067314 -0.053344
v -0.301053 -0.067314 -0.053344
v 0.949482 -0.314208 -1.178540
v 0.934251 -0.340497 -1.180919
v -0.940097 -0.292334 -1.157110
v -0.938095 -0.323352 -1.157664
v -1.106916 -0.401154 -0.864351
v 1.114231 -0.389422 -0.868078
v -1.122955 -0.369892 -0.846895
v 1.101296 -0.421484 -0.862464
v 0.300000 -0.195732 -0.756065
v 0.300000 0.293126 -0.911970
v -0.300000 -0.195732 -0.756065
v -0.300000 0.293126 -0.911970
v -0.300000 0.293126 -0.911970
v 0.300000 -0.195732 -0.756065
v 0.300000 0.293126 -0.911970
v -0.300000 -0.195732 -0.756065
v -0.134000 0.451289 0.198596
v 0.000144 0.434638 0.272411
v 0.134288 0.451289 0.198596
v 0.109495 0.334984 -0.911970
v -0.105426 0.334969 -0.911970
v -0.449297 0.561290 -0.404782
v -0.463917 0.602151 -0.393344
v -0.473132 0.462295 -0.361150
v 0.479828 0.462561 -0.361275
v 0.452065 0.560905 -0.404398
v 0.466122 0.602158 -0.393323
v 0.204721 0.632960 -0.469724
v 0.195981 0.677875 -0.465779
v -0.221080 0.633355 -0.469614
v -0.214351 0.677882 -0.465767
v 0.150868 0.551090 -0.436535
v 0.110098 0.571409 -0.395254
v -0.151984 0.550084 -0.436016
v -0.117584 0.571607 -0.395840
v -0.003743 0.531241 -0.217897
v 0.158580 -0.131780 -1.071022
v 0.138468 -0.114966 -1.044123
v -0.158580 -0.131780 -1.071022
v -0.138468 -0.114966 -1.044123
v -0.364280 0.387629 -0.903515
v -0.377273 0.404002 -0.938561
v 0.379454 0.354157 -0.879812
v -0.375079 0.354157 -0.879812
v 0.138468 0.171113 -1.044123
v 0.162115 0.192199 -1.073252
v -0.162115 0.192199 -1.073252
v -0.138468 0.171113 -1.044123
v 0.201401 0.387629 -0.903515
v 0.195981 0.406219 -0.939599
v 0.377606 0.404005 -0.938552
v 0.365368 0.387629 -0.903515
v -0.214351 0.406216 -0.939606
v -0.218872 0.387629 -0.903515
v -0.161506 0.354157 -0.879812
v 0.155964 0.354157 -0.879812
v -0.000850 1.027114 -0.791633
v -0.000850 1.027114 -0.791633
vt 0.166838 0.716368
vt 0.167882 0.688086
vt 0.363129 0.724436
vt 0.364439 0.730413
vt 0.665916 0.232139
vt 0.830052 0.232587
vt 0.693919 0.448363
vt 0.630371 0.424050
vt 0.236306 0.344407
vt 0.223818 0.422578
vt 0.040217 0.415348
vt 0.000263 0.299012
vt 0.479929 0.334210
vt 0.588055 0.319221
vt 0.596983 0.342416
vt 0.520303 0.398053
vt 0.339301 0.433021
vt 0.381099 0.337775
vt 0.619548 0.129307
vt 0.636387 0.027882
vt 0.640194 0.033686
vt 0.665567 0.220579
vt 0.315979 0.179672
vt 0.307330 0.348050
vt 0.243305 0.179830
vt 0.875655 0.761359
vt 0.917100 0.759880
vt 0.908235 0.874203
vt 0.847014 0.876878
vt 0.479728 0.332270
vt 0.385218 0.193428
vt 0.482595 0.198650
vt 0.482460 0.200321
vt 0.167778 0.826052
vt 0.194604 0.771207
vt 0.367943 0.770385
vt 0.364515 0.810509
vt 0.169559 0.856275
vt 0.362879 0.817731
vt 0.597274 0.279586
vt 0.592471 0.211783
vt 0.593050 0.210833
vt 0.598481 0.246354
vt 0.235447 0.102149
vt 0.003507 0.208534
vt 0.051847 0.096000
vt 0.524822 0.133810
vt 0.349278 0.098794
vt 0.562552 0.242829
vt 0.516297 0.242703
vt 0.602497 0.190442
vt 0.126379 0.570074
vt 0.035066 0.650108
vt 0.067558 0.553340
vt 0.387771 0.454684
vt 0.396752 0.074002
vt 0.131169 0.972929
vt 0.077199 0.995786
vt 0.038608 0.896249
vt 0.616552 0.474489
vt 0.562334 0.539877
vt 0.572573 0.000263
vt 0.616552 0.064318
vt 0.839615 0.217801
vt 0.710095 0.014898
vt 0.000263 0.748629
vt 0.562014 0.286112
vt 0.586107 0.317509
vt 0.515690 0.286463
vt 0.806208 0.887185
vt 0.857150 0.752816
vt 0.453401 0.790008
vt 0.390620 0.790008
vt 0.390620 0.725154
vt 0.453401 0.725154
vt 0.692058 0.709881
vt 0.740106 0.746208
vt 0.730700 0.753599
vt 0.697987 0.728866
vt 0.624653 0.429152
vt 0.695193 0.456205
vt 0.708666 0.006100
vt 0.414264 0.906166
vt 0.254915 0.999737
vt 0.250194 0.540403
vt 0.414264 0.630644
vt 0.001567 0.796608
vt 0.698036 0.914907
vt 0.775390 0.914001
vt 0.767481 0.938439
vt 0.711315 0.936223
vt 0.670902 0.892926
vt 0.659855 0.757847
vt 0.694015 0.762606
vt 0.704777 0.876281
vt 0.821886 0.337016
vt 0.876390 0.672248
vt 0.927026 0.670550
vt 0.917043 0.680188
vt 0.879893 0.681434
vt 0.748499 0.754686
vt 0.801666 0.886988
vt 0.761685 0.877775
vt 0.731042 0.763557
vt 0.614834 0.317429
vt 0.946801 0.754136
vt 0.941302 0.890053
vt 0.369384 0.728424
vt 0.828534 0.117070
vt 0.588785 0.925280
vt 0.590807 0.870031
vt 0.604939 0.898225
vt 0.608948 0.829076
vt 0.639283 0.899497
vt 0.454496 0.925361
vt 0.495103 0.892683
vt 0.454985 0.870425
vt 0.603805 0.967465
vt 0.817459 0.912924
vt 0.896538 0.914287
vt 0.882475 0.935131
vt 0.822229 0.935888
vt 0.003493 0.253907
vt 0.794880 0.667265
vt 0.765320 0.519033
vt 0.814019 0.517540
vt 0.906937 0.884762
vt 0.845476 0.886348
vt 0.928870 0.899814
vt 0.946801 0.998872
vt 0.934784 0.989321
vt 0.655302 0.996426
vt 0.682016 0.902158
vt 0.668390 0.987419
vt 0.763194 0.887168
vt 0.706089 0.886591
vt 0.788291 0.897785
vt 0.819813 0.896725
vt 0.932930 0.743603
vt 0.917174 0.680306
vt 0.925701 0.672232
vt 0.698228 0.691171
vt 0.675603 0.747119
vt 0.690720 0.681872
vt 0.875577 0.751323
vt 0.917388 0.750041
vt 0.520553 0.281674
vt 0.558225 0.281505
vt 0.519549 0.246904
vt 0.520404 0.281612
vt 0.558168 0.246953
vt 0.693674 0.752824
vt 0.865171 0.744540
vt 0.369781 0.811242
vt 0.372854 0.769803
vt 0.900659 0.658301
vt 0.808297 0.669112
vt 0.820488 0.518662
vt 0.948925 0.527592
vt 0.778152 0.668698
vt 0.685449 0.661357
vt 0.632300 0.532691
vt 0.760345 0.518599
vt 0.900659 0.658301
vt 0.996110 0.515320
vt 0.584867 0.521939
vt 0.685449 0.661357
vn 0.000000 0.959091 0.283097
vn 0.000000 0.959091 0.283097
vn 0.000000 0.959091 0.283097
vn 0.000000 0.959091 0.283097
vn 0.695882 0.675582 -0.243594
vn 0.695882 0.675582 -0.243594
vn 0.695882 0.675582 -0.243594
vn 0.695882 0.675582 -0.243594
vn -0.850598 -0.509899 -0.128400
vn -0.850598 -0.509899 -0.128400
vn -0.850598 -0.509899 -0.128400
vn -0.850598 -0.509899 -0.128400
vn -0.238590 -0.225990 -0.944459
vn -0.238590 -0.225990 -0.944459
vn -0.238590 -0.225990 -0.944459
vn -0.238590 -0.225990 -0.944459
vn 0.544412 -0.838219 0.031701
vn 0.544412 -0.838219 0.031701
vn 0.544412 -0.838219 0.031701
vn 0.544412 -0.838219 0.031701
vn 0.717819 -0.371210 -0.589016
vn 0.717819 -0.371210 -0.589016
vn 0.717819 -0.371210 -0.589016
vn 0.717819 -0.371210 -0.589016
vn 0.000000 -0.985080 -0.172097
vn 0.000000 -0.985080 -0.172097
vn 0.000000 -0.985080 -0.172097
vn 0.000000 -0.985080 -0.172097
vn 0.220493 0.878370 -0.424086
vn 0.220493 0.878370 -0.424086
vn 0.220493 0.878370 -0.424086
vn 0.220493 0.878370 -0.424086
vn 0.000000 -1.000000 0.000000
vn 0.000000 -1.000000 0.000000
vn 0.000000 -1.000000 0.000000
vn 0.000000 -1.000000 0.000000
vn 0.000000 -1.000000 0.000000
vn 0.000000 -1.000000 0.000000
vn 0.098599 0.946687 0.306696
vn 0.098599 0.946687 0.306696
vn 0.098599 0.946687 0.306696
vn 0.098599 0.946687 0.306696
vn 0.000000 0.959091 0.283097
vn 0.000000 0.959091 0.283097
vn 0.000000 0.959091 0.283097
vn 0.000000 0.959091 0.283097
vn 0.000000 0.000000 -1.000000
vn 0.000000 0.000000 -1.000000
vn 0.000000 0.000000 -1.000000
vn 0.000000 0.000000 -1.000000
vn 0.000000 0.000000 -1.000000
vn 0.855969 -0.500882 -0.128195
vn 0.855969 -0.500882 -0.128195
vn 0.855969 -0.500882 -0.128195
vn 0.855969 -0.500882 -0.128195
vn -0.544412 -0.838219 0.031701
vn -0.544412 -0.838219 0.031701
vn -0.544412 -0.838219 0.031701
vn -0.544412 -0.838219 0.031701
vn -0.098599 0.946687 0.306696
vn -0.098599 0.946687 0.306696
vn -0.098599 0.946687 0.306696
vn -0.098599 0.946687 0.306696
vn 0.204197 -0.788688 -0.579892
vn 0.204197 -0.788688 -0.579892
vn 0.204197 -0.788688 -0.579892
vn 0.204197 -0.788688 -0.579892
vn 0.000000 -0.895684 0.444692
vn 0.000000 -0.895684 0.444692
vn 0.000000 -0.895684 0.444692
vn 0.000000 -0.895684 0.444692
vn -0.201897 -0.788987 -0.580290
vn -0.201897 -0.788987 -0.580290
vn -0.201897 -0.788987 -0.580290
vn -0.201897 -0.788987 -0.580290
vn 0.353105 -0.837411 0.417205
vn 0.353105 -0.837411 0.417205
vn 0.353105 -0.837411 0.417205
vn -0.861617 -0.100502 -0.497510
vn -0.861617 -0.100502 -0.497510
vn -0.861617 -0.100502 -0.497510
vn -0.861617 -0.100502 -0.497510
vn -0.355001 -0.837902 0.414601
vn -0.355001 -0.837902 0.414601
vn -0.355001 -0.837902 0.414601
vn -0.006200 0.028799 -0.999566
vn -0.006200 0.028799 -0.999566
vn -0.006200 0.028799 -0.999566
vn -0.687108 0.456906 0.564907
vn -0.687108 0.456906 0.564907
vn -0.687108 0.456906 0.564907
vn 0.552079 -0.832368 0.048698
vn 0.552079 -0.832368 0.048698
vn 0.552079 -0.832368 0.048698
vn -0.679474 -0.732772 0.036899
vn -0.679474 -0.732772 0.036899
vn -0.679474 -0.732772 0.036899
vn 0.729421 0.447813 0.517115
vn 0.729421 0.447813 0.517115
vn 0.729421 0.447813 0.517115
vn -0.618678 -0.750673 0.231792
vn -0.618678 -0.750673 0.231792
vn -0.618678 -0.750673 0.231792
vn -0.618678 -0.750673 0.231792
vn 0.592500 -0.762800 0.259000
vn 0.592500 -0.762800 0.259000
vn 0.592500 -0.762800 0.259000
vn 0.592500 -0.762800 0.259000
vn -0.683574 0.684374 -0.253690
vn -0.683574 0.684374 -0.253690
vn -0.683574 0.684374 -0.253690
vn -0.683574 0.684374 -0.253690
vn -0.156600 0.933801 0.321701
vn -0.156600 0.933801 0.321701
vn -0.156600 0.933801 0.321701
vn -0.156600 0.933801 0.321701
vn 0.000000 0.847689 -0.530493
vn 0.000000 0.847689 -0.530493
vn 0.000000 0.847689 -0.530493
vn 0.000000 0.847689 -0.530493
vn 0.000000 -0.980000 -0.199000
vn 0.000000 -0.980000 -0.199000
vn 0.000000 -0.980000 -0.199000
vn 0.000000 -0.980000 -0.199000
vn 0.962609 0.167502 -0.212902
vn 0.962609 0.167502 -0.212902
vn 0.962609 0.167502 -0.212902
vn 0.962609 0.167502 -0.212902
vn 0.000000 0.000000 1.000000
vn 0.000000 0.000000 1.000000
vn 0.000000 0.000000 1.000000
vn 0.000000 0.000000 1.000000
vn 0.000000 0.000000 1.000000
vn 0.000000 0.000000 1.000000
vn 0.000000 0.000000 1.000000
vn 0.000000 0.000000 1.000000
vn 0.000000 0.000000 1.000000
vn 0.000000 0.000000 1.000000
vn 0.000000 0.000000 1.000000
vn 0.000000 0.000000 -1.000000
vn 0.000000 0.000000 -1.000000
vn 0.000000 0.000000 -1.000000
vn 0.000000 0.000000 -1.000000
vn 0.000000 -0.577904 -0.816105
vn 0.000000 -0.577904 -0.816105
vn 0.000000 -0.577904 -0.816105
vn 0.000000 -0.577904 -0.816105
vn 0.015500 0.070599 -0.997384
vn 0.015500 0.070599 -0.997384
vn 0.015500 0.070599 -0.997384
vn 0.766888 -0.398094 -0.503392
vn 0.766888 -0.398094 -0.503392
vn 0.766888 -0.398094 -0.503392
vn 0.766888 -0.398094 -0.503392
vn 0.243497 -0.230598 -0.942090
vn 0.243497 -0.230598 -0.942090
vn 0.243497 -0.230598 -0.942090
vn 0.243497 -0.230598 -0.942090
vn -0.849140 -0.095705 -0.519425
vn -0.849140 -0.095705 -0.519425
vn -0.849140 -0.095705 -0.519425
vn -0.849140 -0.095705 -0.519425
vn 0.952735 0.212408 0.217208
vn 0.952735 0.212408 0.217208
vn 0.952735 0.212408 0.217208
vn 0.952735 0.212408 0.217208
vn 0.876673 0.289291 0.384388
vn 0.876673 0.289291 0.384388
vn 0.876673 0.289291 0.384388
vn 0.876673 0.289291 0.384388
vn -0.949686 0.224497 0.218397
vn -0.949686 0.224497 0.218397
vn -0.949686 0.224497 0.218397
vn -0.949686 0.224497 0.218397
vn -0.868979 0.297293 0.395591
vn -0.868979 0.297293 0.395591
vn -0.868979 0.297293 0.395591
vn -0.868979 0.297293 0.395591
vn 0.159093 0.935059 0.316786
vn 0.159093 0.935059 0.316786
vn 0.159093 0.935059 0.316786
vn 0.159093 0.935059 0.316786
vn 0.110595 0.410880 0.904957
vn 0.110595 0.410880 0.904957
vn 0.110595 0.410880 0.904957
vn 0.110595 0.410880 0.904957
vn 0.701422 0.637520 -0.318710
vn 0.701422 0.637520 -0.318710
vn 0.701422 0.637520 -0.318710
vn 0.701422 0.637520 -0.318710
vn 0.864596 0.463798 0.193299
vn 0.864596 0.463798 0.193299
vn 0.864596 0.463798 0.193299
vn 0.864596 0.463798 0.193299
vn 0.000000 -0.577904 -0.816105
vn 0.000000 -0.577904 -0.816105
vn 0.000000 -0.577904 -0.816105
vn 0.000000 -0.577904 -0.816105
vn -0.965491 0.155798 -0.208698
vn -0.965491 0.155798 -0.208698
vn -0.965491 0.155798 -0.208698
vn -0.965491 0.155798 -0.208698
vn -0.733608 -0.345304 -0.585307
vn -0.733608 -0.345304 -0.585307
vn -0.733608 -0.345304 -0.585307
vn -0.733608 -0.345304 -0.585307
vn -0.762099 0.576299 -0.295100
vn -0.762099 0.576299 -0.295100
vn -0.762099 0.576299 -0.295100
vn -0.762099 0.576299 -0.295100
vn 0.011400 -0.394799 0.918697
vn 0.011400 -0.394799 0.918697
vn 0.011400 -0.394799 0.918697
vn -0.857132 0.480418 0.185807
vn -0.857132 0.480418 0.185807
vn -0.857132 0.480418 0.185807
vn -0.857132 0.480418 0.185807
vn 0.000000 0.975500 0.220000
vn 0.000000 0.975500 0.220000
vn 0.000000 0.975500 0.220000
vn -0.401007 0.508309 0.762113
vn -0.401007 0.508309 0.762113
vn -0.401007 0.508309 0.762113
vn -0.401007 0.508309 0.762113
vn 0.000100 0.980864 0.194693
vn 0.000100 0.980864 0.194693
vn 0.000100 0.980864 0.194693
vn 0.000100 0.980864 0.194693
vn 0.000100 0.980864 0.194693
vn 0.401007 0.508309 0.762113
vn 0.401007 0.508309 0.762113
vn 0.401007 0.508309 0.762113
vn 0.401007 0.508309 0.762113
vn -0.110104 0.401014 0.909431
vn -0.110104 0.401014 0.909431
vn -0.110104 0.401014 0.909431
vn -0.110104 0.401014 0.909431
vn 0.692583 0.711983 0.115797
vn 0.692583 0.711983 0.115797
vn 0.692583 0.711983 0.115797
vn -0.691498 0.711498 0.124900
vn -0.691498 0.711498 0.124900
vn -0.691498 0.711498 0.124900
vn 0.000000 -0.991851 0.127406
vn 0.000000 -0.991851 0.127406
vn 0.000000 -0.991851 0.127406
vn 0.000000 -0.991851 0.127406
vn 0.000000 -0.991851 0.127406
vn 0.000000 -0.423296 -0.905991
vn 0.000000 -0.423296 -0.905991
vn 0.000000 -0.423296 -0.905991
vn -0.293395 -0.146598 0.944684
vn -0.293395 -0.146598 0.944684
vn -0.293395 -0.146598 0.944684
vn -0.293395 -0.146598 0.944684
vn 0.637315 -0.049401 0.769018
vn 0.637315 -0.049401 0.769018
vn 0.637315 -0.049401 0.769018
vn 0.637315 -0.049401 0.769018
vn 0.288296 0.954185 -0.080099
vn 0.288296 0.954185 -0.080099
vn 0.288296 0.954185 -0.080099
vn 0.288296 0.954185 -0.080099
vn -0.304113 0.939841 -0.155607
vn -0.304113 0.939841 -0.155607
vn -0.304113 0.939841 -0.155607
vn -0.304113 0.939841 -0.155607
vn 0.312995 -0.139298 0.939484
vn 0.312995 -0.139298 0.939484
vn 0.312995 -0.139298 0.939484
vn 0.312995 -0.139298 0.939484
vn 0.829802 0.072700 0.553302
vn 0.829802 0.072700 0.553302
vn 0.829802 0.072700 0.553302
vn 0.829802 0.072700 0.553302
vn -0.839121 0.042101 0.542313
vn -0.839121 0.042101 0.542313
vn -0.839121 0.042101 0.542313
vn -0.839121 0.042101 0.542313
vn -0.624294 -0.125199 0.771092
vn -0.624294 -0.125199 0.771092
vn -0.624294 -0.125199 0.771092
vn -0.624294 -0.125199 0.771092
vn -0.240392 0.873571 -0.423186
vn -0.240392 0.873571 -0.423186
vn -0.240392 0.873571 -0.423186
vn -0.240392 0.873571 -0.423186
vn 0.008200 0.827020 -0.562113
vn 0.008200 0.827020 -0.562113
vn 0.008200 0.827020 -0.562113
vn 0.008200 0.827020 -0.562113
vn -0.004900 0.839984 -0.542589
vn -0.004900 0.839984 -0.542589
vn -0.004900 0.839984 -0.542589
vn -0.004900 0.839984 -0.542589
vn -0.004400 -0.897241 -0.441520
vn -0.004400 -0.897241 -0.441520
vn -0.004400 -0.897241 -0.441520
vn -0.004400 -0.897241 -0.441520
vn -0.788207 0.002300 -0.615406
vn -0.788207 0.002300 -0.615406
vn -0.788207 0.002300 -0.615406
vn -0.788207 0.002300 -0.615406
vn 0.000000 0.847953 -0.530071
vn 0.000000 0.847953 -0.530071
vn 0.000000 0.847953 -0.530071
vn 0.000000 0.847953 -0.530071
vn 0.788207 0.002300 -0.615406
vn 0.788207 0.002300 -0.615406
vn 0.788207 0.002300 -0.615406
vn 0.788207 0.002300 -0.615406
vn 0.000000 -0.810014 -0.586410
vn 0.000000 -0.810014 -0.586410
vn 0.000000 -0.810014 -0.586410
vn 0.000000 -0.810014 -0.586410
vn 0.004900 -0.897238 -0.441519
vn 0.004900 -0.897238 -0.441519
vn 0.004900 -0.897238 -0.441519
vn 0.004900 -0.897238 -0.441519
vn 0.487897 -0.793295 -0.364198
vn 0.487897 -0.793295 -0.364198
vn 0.487897 -0.793295 -0.364198
vn 0.487897 -0.793295 -0.364198
vn -0.801780 -0.467889 -0.371791
vn -0.801780 -0.467889 -0.371791
vn -0.801780 -0.467889 -0.371791
vn -0.801780 -0.467889 -0.371791
vn 0.818362 -0.422780 -0.389282
vn 0.818362 -0.422780 -0.389282
vn 0.818362 -0.422780 -0.389282
vn 0.818362 -0.422780 -0.389282
vn -0.414691 -0.835381 -0.360792
vn -0.414691 -0.835381 -0.360792
vn -0.414691 -0.835381 -0.360792
vn -0.414691 -0.835381 -0.360792
vn 0.861617 -0.100502 -0.497510
vn 0.861617 -0.100502 -0.497510
vn 0.861617 -0.100502 -0.497510
vn 0.861617 -0.100502 -0.497510
vn -0.008700 -0.393904 0.919110
vn -0.008700 -0.393904 0.919110
vn -0.008700 -0.393904 0.919110
vn 0.000000 -0.408892 0.912583
vn 0.000000 -0.408892 0.912583
vn 0.000000 -0.408892 0.912583
vn 0.000000 -0.408892 0.912583
vn 0.000000 -0.408892 0.912583
vn 0.000000 -0.408892 0.912583
vn 0.000000 -0.408892 0.912583
vn 0.000000 -0.408892 0.912583
vn 0.000900 0.926700 -0.375800
vn -0.000400 0.550632 -0.834748
vn -0.141697 0.088098 -0.985982
vn -0.480702 0.826803 0.292101
vn -0.000400 0.550632 -0.834748
vn 0.000900 0.926700 -0.375800
vn 0.468614 0.825825 0.313710
vn 0.142503 0.076701 -0.986818
vn -0.599917 0.606817 0.521415
vn -0.480702 0.826803 0.292101
vn -0.000200 0.896418 0.443209
vn -0.000200 0.896418 0.443209
vn 0.468614 0.825825 0.313710
vn 0.603012 0.602012 0.523410
s off
f 31/1/1 25/2/2 7/3/3 20/4/4
f 1/5/5 10/6/6 41/7/7 36/8/8
f 29/9/9 26/10/10 4/11/11 16/12/12
f 44/13/13 45/14/14 1/15/15 2/16/16
f 44/13/17 2/16/18 32/17/19 19/18/20
f 6/19/21 39/20/22 38/21/23 5/22/24
f 35/23/25 34/24/26 29/9/27 30/25/28
f 86/26/29 85/27/30 64/28/31 62/29/32
f 49/30/33 44/13/34 19/18/35 21/31/36 46/32/37 51/33/38
f 28/34/39 27/35/40 13/36/41 18/37/42
f 24/38/43 28/34/44 18/37/45 3/39/46
f 55/40/47 45/14/48 48/41/49 47/42/50 56/43/51
f 23/44/52 30/25/53 22/45/54 8/46/55
f 6/47/56 46/32/57 21/31/58 33/48/59
f 27/35/60 31/1/61 20/4/62 13/36/63
f 33/48/64 35/23/65 30/25/66 23/44/67
f 19/18/68 34/24/69 35/23/70 21/31/71
f 34/24/72 32/17/73 26/10/74 29/9/75
f 19/18/76 32/17/77 34/24/78
f 82/49/79 74/50/80 51/33/81 48/41/82
f 33/48/83 21/31/84 35/23/85
f 5/51/86 56/43/87 47/42/88
f 33/52/89 11/53/90 9/54/91
f 2/16/92 12/55/93 32/17/94
f 9/56/95 6/47/96 33/48/97
f 32/57/98 12/58/99 10/59/100
f 12/55/101 2/16/102 37/60/103 43/61/104
f 6/47/105 9/56/106 40/62/107 39/63/108
f 11/64/109 5/22/110 38/21/111 42/65/112
f 70/66/113 11/53/114 25/2/115 31/1/116
f 81/67/117 82/49/118 48/41/119 50/68/120
f 74/50/121 72/69/122 49/30/123 51/33/124
f 10/70/125 1/71/126 86/26/127 62/29/128
f 49/30/129 50/68/130 45/14/131 44/13/132
f 48/41/133 51/33/134 46/32/135 47/42/136
f 50/68/137 48/41/138 45/14/139
f 73/72/140 75/73/141 83/74/142 80/75/143
f 90/76/144 79/77/145 76/78/146 89/79/147
f 45/14/148 55/40/149 1/15/150
f 37/80/151 36/8/152 41/7/153 43/81/154
f 6/47/155 5/51/156 47/42/157 46/32/158
f 39/20/159 40/82/160 42/65/161 38/21/162
f 4/83/163 26/84/164 24/38/165 3/39/166
f 32/57/167 10/59/168 24/38/169 26/84/170
f 23/85/171 8/86/172 7/3/173 25/2/174
f 11/53/175 33/52/176 23/85/177 25/2/178
f 10/59/179 68/87/180 28/34/181 24/38/182
f 59/88/183 69/89/184 65/90/185 57/91/186
f 70/92/187 56/93/188 88/94/189 66/95/190
f 12/96/191 43/81/192 41/7/193 10/6/194
f 78/97/195 91/98/196 84/99/197 87/100/198
f 5/101/199 11/102/200 58/103/201 77/104/202
f 2/105/203 1/5/204 36/8/205 37/80/206
f 55/106/207 68/107/208 64/28/209 85/27/210
f 7/3/211 8/86/212 22/108/213
f 42/65/214 40/82/215 9/109/216 11/64/217
f 54/110/218 52/111/219 53/112/220
f 31/113/221 27/114/222 53/112/223 52/111/224
f 68/115/225 71/116/226 70/117/227 52/111/228 54/110/229
f 27/114/230 28/118/231 54/110/232 53/112/233
f 67/119/234 60/120/235 61/121/236 63/122/237
f 28/118/238 68/115/239 54/110/240
f 70/117/241 31/113/242 52/111/243
f 29/9/244 16/12/245 14/123/246 22/45/247 30/25/248
f 15/124/249 55/125/250 56/126/251
f 63/127/252 61/128/253 62/29/254 64/28/255
f 67/129/256 63/127/257 64/28/258 68/107/259
f 68/107/260 10/130/261 60/131/262 67/129/263
f 11/132/264 70/92/265 69/133/266 59/134/267
f 57/135/268 65/136/269 66/95/270 58/103/271
f 58/103/272 11/102/273 59/137/274 57/135/275
f 61/128/276 60/138/277 10/70/278 62/29/279
f 70/92/280 66/95/281 65/136/282 69/133/283
f 88/94/284 77/104/285 58/103/286 66/95/287
f 91/139/288 78/140/289 1/141/290 55/106/291
f 79/142/292 90/143/293 56/93/294 5/144/295
f 85/27/296 86/26/297 87/145/298 84/146/299
f 81/67/300 72/69/301 73/147/302 80/148/303
f 72/69/304 74/50/305 75/149/306 73/150/307
f 83/151/308 75/149/309 74/50/310 82/49/311
f 82/49/312 81/67/313 80/148/314 83/151/315
f 77/104/316 88/94/317 89/152/318 76/78/319
f 84/146/320 91/139/321 55/106/322 85/27/323
f 78/153/324 87/145/325 86/26/326 1/71/327
f 76/78/328 79/77/329 5/101/330 77/104/331
f 88/94/332 56/93/333 90/143/334 89/152/335
f 72/69/336 81/67/337 50/68/338 49/30/339
f 3/39/340 16/154/341 4/83/342
f 20/4/343 7/3/344 22/108/345 14/155/346 16/154/347 3/39/348 18/37/349 13/36/350
f 92/156/351 15/157/352 56/158/353 70/159/354
f 15/160/355 92/161/356 68/162/357 55/163/358
f 93/164/359 70/159/360 71/165/361
f 71/166/362 68/162/363 17/167/364
